<svg width="43" height="43" viewBox="0 0 43 43" fill="none" xmlns="http://www.w3.org/2000/svg">
<rect width="43" height="43" rx="8" fill="#5188FF" fill-opacity="0.1"/>
<path d="M28.4808 14.9213L28.5867 15.4417H29.1178H31.5625C31.997 15.4417 32.35 15.7947 32.35 16.2292C32.35 16.6637 31.997 17.0167 31.5625 17.0167H29.1178H28.5867L28.4808 17.537C28.3188 18.3334 27.6128 18.9333 26.7708 18.9333H25.6975H25.4462L25.2603 19.1024L24.1534 20.1086L24.1532 20.1088C23.0899 21.0762 21.7491 21.6582 20.329 21.782L19.8017 21.828L19.7399 22.3537L19.0604 28.1324L18.9751 28.8583H19.706H20.0625C21.027 28.8583 21.8083 29.6397 21.8083 30.6042C21.8083 31.5686 21.027 32.35 20.0625 32.35H12.3958C11.4314 32.35 10.65 31.5686 10.65 30.6042C10.65 29.7388 11.2837 29.0223 12.1183 28.8885L12.6035 28.8106L12.6609 28.3226L13.4161 21.9018L13.4676 21.464L13.08 21.2542C11.6322 20.4706 10.65 18.9405 10.65 17.1875V15.2708C10.65 12.7241 12.7233 10.65 15.2708 10.65H19.7558C21.3854 10.65 22.9468 11.253 24.1534 12.3497L25.2603 13.356L25.4462 13.525H25.6975H26.7708C27.612 13.525 28.3188 14.1251 28.4808 14.9213ZM14.2688 28.1324L14.1834 28.8583H14.9143H16.8109H17.3889L17.4564 28.2843L18.133 22.5343L18.2184 21.8083H17.4875H15.5909H15.0129L14.9454 22.3824L14.2688 28.1324ZM23.0949 13.5162L23.0948 13.5161C22.179 12.6841 20.993 12.225 19.7558 12.225H15.2708C13.5914 12.225 12.225 13.5901 12.225 15.2708V17.1875C12.225 18.8682 13.5914 20.2333 15.2708 20.2333H19.7558C20.9926 20.2333 22.1787 19.7755 23.0948 18.9432L23.0949 18.943L23.8539 18.253L24.0667 18.0596V17.7721V14.6872V14.3997L23.8539 14.2062L23.0949 13.5162ZM20.85 16.2292C20.85 16.664 20.4977 17.0167 20.0625 17.0167H16.2292C15.794 17.0167 15.4417 16.664 15.4417 16.2292C15.4417 15.7944 15.794 15.4417 16.2292 15.4417H20.0625C20.4977 15.4417 20.85 15.7944 20.85 16.2292Z" stroke="#5188FF" stroke-width="1.3"/>
</svg>
