<svg width="45" height="42" viewBox="0 0 45 42" fill="none" xmlns="http://www.w3.org/2000/svg">
<rect x="0.5" width="44" height="42" rx="8" fill="#5188FF" fill-opacity="0.1"/>
<path d="M28.4674 15.4693L33.0776 10.8494L33.6523 11.4253L29.0572 16.03L28.6285 16.4597L29.063 16.8834L30.8723 18.6476L30.8725 18.6478C31.0116 18.7834 31.1212 18.9465 31.1941 19.1269C31.2671 19.3073 31.3019 19.501 31.2962 19.6956L31.2961 19.6971C31.2649 20.8668 31.0866 22.0266 30.7664 23.1493L22.0042 14.5212C22.5361 14.1269 23.0517 13.711 23.5499 13.2744C23.8127 13.0454 24.1515 12.9238 24.4992 12.9333C24.8468 12.9428 25.1785 13.0828 25.4284 13.3259C25.4286 13.326 25.4287 13.3262 25.4289 13.3264L27.6229 15.4742L28.0476 15.8899L28.4674 15.4693Z" stroke="#5188FF" stroke-width="1.2"/>
<path d="M18.2031 30.2377L19.4246 29.6151L19.4261 29.6143C21.2548 28.6756 22.8184 27.2779 23.971 25.5537L23.9716 25.5528L24.4864 24.7798L24.8121 24.2907L24.33 23.9549L22.6882 22.811L22.1859 22.4611L21.8461 22.9703L21.3305 23.7432C21.3304 23.7433 21.3304 23.7433 21.3304 23.7434C20.4815 25.0144 19.3321 26.0431 17.9907 26.7344C17.9904 26.7346 17.9901 26.7347 17.9899 26.7348L16.6296 27.43L14.9917 28.0515C14.3974 27.4933 13.8587 26.8764 13.3834 26.2101L13.6241 26.1695L13.6491 26.1652L13.6736 26.1589C15.7616 25.622 17.6717 24.5297 19.2102 22.9946L19.6263 22.5794L19.2197 22.1549L17.8284 20.7022L17.4039 20.259L16.9704 20.6934C15.8621 21.8037 14.4916 22.599 12.9943 23.0028L11.8109 23.2004C11.3398 21.8778 11.0986 20.4794 11.1 19.0688V19.0683V18.7538L16.8608 17.0261L16.8609 17.0263L16.8735 17.0222C17.6505 16.7703 18.4018 16.4437 19.1174 16.047L29.2782 26.2517C28.0907 28.2725 26.4848 30.0038 24.5725 31.3234L24.5725 31.3233L24.5649 31.3287L24.4648 31.4001H23.4265L23.4253 31.4001C21.6185 31.4037 19.8372 31.0052 18.2031 30.2377Z" stroke="#5188FF" stroke-width="1.2"/>
</svg>
