<svg width="45" height="44" viewBox="0 0 45 44" fill="none" xmlns="http://www.w3.org/2000/svg">
<rect x="0.5" width="44" height="44" rx="8" fill="#5188FF" fill-opacity="0.1"/>
<g clip-path="url(#clip0_343_8271)">
<path d="M17.127 14.877C17.127 14.6797 17.2871 14.5215 17.4824 14.5215C17.6797 14.5215 17.8379 14.6816 17.8379 14.877V21.3867C17.8379 21.584 17.6777 21.7422 17.4824 21.7422H13.2676C13.0723 21.7441 12.9121 21.584 12.9121 21.3887V10.7656C12.9121 10.5566 12.998 10.3652 13.1367 10.2246L13.1387 10.2227C13.2793 10.0859 13.4687 10 13.6797 10H17.0723C17.2812 10 17.4746 10.0859 17.6133 10.2266C17.752 10.3652 17.8379 10.5566 17.8379 10.7676V11.6699C17.8379 11.8672 17.6777 12.0254 17.4824 12.0254C17.2852 12.0254 17.127 11.8652 17.127 11.6699V10.7656C17.127 10.752 17.1211 10.7383 17.1113 10.7266C17.1016 10.7168 17.0879 10.7109 17.0723 10.7109H13.6797C13.6641 10.7109 13.6504 10.7168 13.6406 10.7266L13.6387 10.7285C13.6289 10.7383 13.623 10.752 13.623 10.7676V21.0332H17.127V14.877ZM17.125 29.5078L12.9531 21.5527C12.8633 21.3789 12.9297 21.166 13.1035 21.0742C13.1562 21.0469 13.2129 21.0332 13.2676 21.0332V21.0312H31.7305C31.9277 21.0312 32.0859 21.1914 32.0859 21.3867C32.0859 21.4004 32.0859 21.4141 32.084 21.4277C31.9844 25.6738 29.9023 26.8691 28.1504 27.873C27.127 28.4609 26.2305 28.9746 26.0625 30.0625L26.0605 30.0723C25.9961 30.498 26.0312 30.9863 26.166 31.5391C26.3066 32.1152 26.5547 32.7637 26.916 33.4844C27.0039 33.6602 26.9316 33.873 26.7559 33.9609C26.7051 33.9863 26.6504 33.998 26.5977 33.998H15.4531C15.2559 33.998 15.0977 33.8379 15.0977 33.6426C15.0977 33.5742 15.1172 33.5098 15.1523 33.4551L17.125 29.5078ZM13.8555 21.7441L17.8379 29.3398C17.8887 29.4375 17.8926 29.5566 17.8398 29.6621L16.0273 33.2891H26.0352C25.7812 32.7246 25.5957 32.1973 25.4766 31.709C25.3184 31.0605 25.2793 30.4805 25.3574 29.9688L25.3594 29.957C25.5801 28.5312 26.6152 27.9375 27.7969 27.2598C29.3437 26.373 31.1738 25.3223 31.3633 21.7461H13.8555V21.7441ZM17.5234 29.8594C17.3262 29.8594 17.168 29.6992 17.168 29.5039C17.168 29.3066 17.3281 29.1484 17.5234 29.1484H21.4082C21.6055 29.1484 21.7637 29.3086 21.7637 29.5039C21.7637 29.7012 21.6035 29.8594 21.4082 29.8594H17.5234ZM17.8359 21.4414C17.8066 21.6348 17.625 21.7695 17.4316 21.7402C17.2383 21.7109 17.1035 21.5293 17.1328 21.3359C17.1895 20.9688 17.2812 20.6367 17.4102 20.3457C17.5449 20.043 17.7188 19.7871 17.9316 19.5781C18.623 18.9023 19.502 18.918 20.3418 18.9336C20.416 18.9355 20.4883 18.9355 20.6777 18.9355H28.2871C30.0918 18.9238 32.0918 18.9102 32.082 21.4746C32.082 21.6699 31.9238 21.8281 31.7285 21.8281C31.5332 21.8281 31.375 21.6699 31.375 21.4746C31.3828 19.623 29.7578 19.6348 28.293 19.6445C28.0723 19.6465 28.0781 19.6484 27.9473 19.6484H20.6797L20.332 19.6426C19.6367 19.6309 18.9082 19.6172 18.4277 20.0879C18.2773 20.2344 18.1562 20.416 18.0586 20.6328C17.957 20.8594 17.8828 21.1289 17.8359 21.4414ZM15.9062 12.1816C16.459 12.1816 16.9062 12.6289 16.9062 13.1816C16.9062 13.7344 16.459 14.1816 15.9062 14.1816C15.3535 14.1816 14.9062 13.7344 14.9062 13.1816C14.9062 12.6289 15.3555 12.1816 15.9062 12.1816ZM16.9062 13.5371C16.709 13.5371 16.5508 13.377 16.5508 13.1816C16.5508 12.9844 16.7109 12.8262 16.9062 12.8262H19.3047C19.502 12.8262 19.6602 12.9863 19.6602 13.1816C19.6602 13.3789 19.5 13.5371 19.3047 13.5371H16.9062Z" fill="#5188FF" stroke="#5188FF" stroke-width="1.2"/>
</g>
<defs>
<clipPath id="clip0_343_8271">
<rect width="24" height="24" fill="white" transform="translate(10.5 10)"/>
</clipPath>
</defs>
</svg>
