<svg width="45" height="44" viewBox="0 0 45 44" fill="none" xmlns="http://www.w3.org/2000/svg">
<rect x="0.5" width="44" height="44" rx="8" fill="#5188FF" fill-opacity="0.1"/>
<path d="M17.75 17H27.25V15C27.25 13 26.5 12 24.25 12H20.75C18.5 12 17.75 13 17.75 15V17Z" stroke="#5188FF" stroke-width="1.5" stroke-miterlimit="10" stroke-linecap="round" stroke-linejoin="round"/>
<path d="M26.5 25V29C26.5 31 25.5 32 23.5 32H21.5C19.5 32 18.5 31 18.5 29V25H26.5Z" stroke="#5188FF" stroke-width="1.5" stroke-miterlimit="10" stroke-linecap="round" stroke-linejoin="round"/>
<path d="M31.5 20V25C31.5 27 30.5 28 28.5 28H26.5V25H18.5V28H16.5C14.5 28 13.5 27 13.5 25V20C13.5 18 14.5 17 16.5 17H28.5C30.5 17 31.5 18 31.5 20Z" stroke="#5188FF" stroke-width="1.5" stroke-miterlimit="10" stroke-linecap="round" stroke-linejoin="round"/>
<path d="M27.5 25H26.29H17.5" stroke="#5188FF" stroke-width="1.5" stroke-miterlimit="10" stroke-linecap="round" stroke-linejoin="round"/>
<path d="M17.5 21H20.5" stroke="#5188FF" stroke-width="1.5" stroke-miterlimit="10" stroke-linecap="round" stroke-linejoin="round"/>
</svg>
