<svg width="45" height="44" viewBox="0 0 45 44" fill="none" xmlns="http://www.w3.org/2000/svg">
<rect x="0.5" width="44" height="44" rx="8" fill="#5188FF" fill-opacity="0.1"/>
<path d="M32.5 26.7402V14.6702C32.5 13.4702 31.52 12.5802 30.33 12.6802H30.27C28.17 12.8602 24.98 13.9302 23.2 15.0502L23.03 15.1602C22.74 15.3402 22.26 15.3402 21.97 15.1602L21.72 15.0102C19.94 13.9002 16.76 12.8402 14.66 12.6702C13.47 12.5702 12.5 13.4702 12.5 14.6602V26.7402C12.5 27.7002 13.28 28.6002 14.24 28.7202L14.53 28.7602C16.7 29.0502 20.05 30.1502 21.97 31.2002L22.01 31.2202C22.28 31.3702 22.71 31.3702 22.97 31.2202C24.89 30.1602 28.25 29.0502 30.43 28.7602L30.76 28.7202C31.72 28.6002 32.5 27.7002 32.5 26.7402Z" stroke="#5188FF" stroke-width="1.5" stroke-linecap="round" stroke-linejoin="round"/>
<path d="M22.5 15.4902V30.4902" stroke="#5188FF" stroke-width="1.5" stroke-linecap="round" stroke-linejoin="round"/>
<path d="M18.25 18.4902H16" stroke="#5188FF" stroke-width="1.5" stroke-linecap="round" stroke-linejoin="round"/>
<path d="M19 21.4902H16" stroke="#5188FF" stroke-width="1.5" stroke-linecap="round" stroke-linejoin="round"/>
</svg>
