<svg width="135" height="41" viewBox="0 0 135 41" fill="none" xmlns="http://www.w3.org/2000/svg">
<g clip-path="url(#clip0_7602_1450)">
<path d="M130.197 40.8867H4.729C2.122 40.8867 0 38.7587 0 36.1537V5.61272C0 3.00672 2.122 0.886719 4.729 0.886719H130.197C132.803 0.886719 135 3.00672 135 5.61272V36.1537C135 38.7587 132.803 40.8867 130.197 40.8867Z" fill="#A6A6A6"/>
<path d="M134.033 36.1544C134.033 38.2704 132.319 39.9844 130.199 39.9844H4.72963C2.61063 39.9844 0.890625 38.2704 0.890625 36.1544V5.61137C0.890625 3.49637 2.61063 1.77637 4.72963 1.77637H130.198C132.319 1.77637 134.032 3.49637 134.032 5.61137L134.033 36.1544Z" fill="black"/>
<path d="M30.1271 20.6709C30.0981 17.4479 32.7661 15.8799 32.8881 15.8069C31.3771 13.6039 29.0351 13.3029 28.2121 13.2789C26.2451 13.0719 24.3371 14.4559 23.3351 14.4559C22.3131 14.4559 20.7701 13.2989 19.1071 13.3329C16.9671 13.3659 14.9651 14.6049 13.8671 16.5289C11.6011 20.4519 13.2911 26.2169 15.4621 29.3879C16.5481 30.9409 17.8171 32.6749 19.4781 32.6139C21.1031 32.5469 21.7101 31.5779 23.6711 31.5779C25.6141 31.5779 26.1841 32.6139 27.8781 32.5749C29.6221 32.5469 30.7201 31.0149 31.7681 29.4479C33.0231 27.6679 33.5271 25.9149 33.5471 25.8249C33.5061 25.8109 30.1601 24.5339 30.1271 20.6709Z" fill="white"/>
<path d="M26.9271 11.1925C27.8011 10.0995 28.3991 8.61252 28.2331 7.10352C26.9681 7.15952 25.3861 7.97852 24.4751 9.04752C23.6691 9.98952 22.9491 11.5335 23.1351 12.9855C24.5561 13.0915 26.0151 12.2685 26.9271 11.1925Z" fill="white"/>
<path d="M53.6452 32.391H51.3742L50.1302 28.482H45.8062L44.6212 32.391H42.4102L46.6942 19.083H49.3402L53.6452 32.391ZM49.7552 26.842L48.6302 23.367C48.5112 23.012 48.2882 22.176 47.9592 20.86H47.9192C47.7882 21.426 47.5772 22.262 47.2872 23.367L46.1822 26.842H49.7552Z" fill="white"/>
<path d="M64.6629 27.4747C64.6629 29.1067 64.2219 30.3967 63.3399 31.3437C62.5499 32.1867 61.5689 32.6077 60.3979 32.6077C59.1339 32.6077 58.2259 32.1537 57.6729 31.2457H57.6329V36.3007H55.5009V25.9537C55.5009 24.9277 55.4739 23.8747 55.4219 22.7947H57.2969L57.4159 24.3157H57.4559C58.1669 23.1697 59.2459 22.5977 60.6939 22.5977C61.8259 22.5977 62.7709 23.0447 63.5269 23.9397C64.2849 24.8357 64.6629 26.0137 64.6629 27.4747ZM62.4909 27.5527C62.4909 26.6187 62.2809 25.8487 61.8589 25.2427C61.3979 24.6107 60.7789 24.2947 60.0029 24.2947C59.4769 24.2947 58.9989 24.4707 58.5719 24.8177C58.1439 25.1677 57.8639 25.6247 57.7329 26.1907C57.6669 26.4547 57.6339 26.6707 57.6339 26.8407V28.4407C57.6339 29.1387 57.8479 29.7277 58.2759 30.2087C58.7039 30.6897 59.2599 30.9297 59.9439 30.9297C60.7469 30.9297 61.3719 30.6197 61.8189 30.0017C62.2669 29.3827 62.4909 28.5667 62.4909 27.5527Z" fill="white"/>
<path d="M75.699 27.4747C75.699 29.1067 75.258 30.3967 74.375 31.3437C73.586 32.1867 72.605 32.6077 71.434 32.6077C70.17 32.6077 69.262 32.1537 68.71 31.2457H68.67V36.3007H66.538V25.9537C66.538 24.9277 66.511 23.8747 66.459 22.7947H68.334L68.453 24.3157H68.493C69.203 23.1697 70.282 22.5977 71.731 22.5977C72.862 22.5977 73.807 23.0447 74.565 23.9397C75.32 24.8357 75.699 26.0137 75.699 27.4747ZM73.527 27.5527C73.527 26.6187 73.316 25.8487 72.894 25.2427C72.433 24.6107 71.816 24.2947 71.039 24.2947C70.512 24.2947 70.035 24.4707 69.607 24.8177C69.179 25.1677 68.9 25.6247 68.769 26.1907C68.704 26.4547 68.67 26.6707 68.67 26.8407V28.4407C68.67 29.1387 68.884 29.7277 69.31 30.2087C69.738 30.6887 70.294 30.9297 70.98 30.9297C71.783 30.9297 72.408 30.6197 72.855 30.0017C73.303 29.3827 73.527 28.5667 73.527 27.5527Z" fill="white"/>
<path d="M88.0392 28.6587C88.0392 29.7907 87.6462 30.7117 86.8572 31.4227C85.9902 32.1997 84.7832 32.5877 83.2322 32.5877C81.8002 32.5877 80.6522 32.3117 79.7832 31.7587L80.2772 29.9817C81.2132 30.5477 82.2402 30.8317 83.3592 30.8317C84.1622 30.8317 84.7872 30.6497 85.2362 30.2877C85.6832 29.9257 85.9062 29.4397 85.9062 28.8337C85.9062 28.2937 85.7222 27.8387 85.3532 27.4697C84.9862 27.1007 84.3732 26.7577 83.5172 26.4407C81.1872 25.5717 80.0232 24.2987 80.0232 22.6247C80.0232 21.5307 80.4312 20.6337 81.2482 19.9357C82.0622 19.2367 83.1482 18.8877 84.5062 18.8877C85.7172 18.8877 86.7232 19.0987 87.5262 19.5197L86.9932 21.2577C86.2432 20.8497 85.3952 20.6457 84.4462 20.6457C83.6962 20.6457 83.1102 20.8307 82.6902 21.1987C82.3352 21.5277 82.1572 21.9287 82.1572 22.4037C82.1572 22.9297 82.3602 23.3647 82.7682 23.7067C83.1232 24.0227 83.7682 24.3647 84.7042 24.7337C85.8492 25.1947 86.6902 25.7337 87.2312 26.3517C87.7702 26.9677 88.0392 27.7387 88.0392 28.6587Z" fill="white"/>
<path d="M95.0881 24.3943H92.7381V29.0533C92.7381 30.2383 93.1521 30.8303 93.9821 30.8303C94.3631 30.8303 94.6791 30.7973 94.9291 30.7313L94.9881 32.3503C94.5681 32.5073 94.0151 32.5863 93.3301 32.5863C92.4881 32.5863 91.8301 32.3293 91.3551 31.8163C90.8821 31.3023 90.6441 30.4403 90.6441 29.2293V24.3923H89.2441V22.7923H90.6441V21.0353L92.7381 20.4033V22.7923H95.0881V24.3943Z" fill="white"/>
<path d="M105.692 27.5136C105.692 28.9886 105.27 30.1996 104.428 31.1466C103.545 32.1216 102.373 32.6076 100.912 32.6076C99.504 32.6076 98.383 32.1406 97.547 31.2066C96.711 30.2726 96.293 29.0936 96.293 27.6726C96.293 26.1856 96.723 24.9676 97.586 24.0206C98.447 23.0726 99.609 22.5986 101.07 22.5986C102.478 22.5986 103.611 23.0656 104.466 24.0006C105.284 24.9076 105.692 26.0786 105.692 27.5136ZM103.48 27.5826C103.48 26.6976 103.291 25.9386 102.908 25.3056C102.461 24.5396 101.822 24.1576 100.994 24.1576C100.137 24.1576 99.486 24.5406 99.039 25.3056C98.656 25.9396 98.467 26.7106 98.467 27.6226C98.467 28.5076 98.656 29.2666 99.039 29.8986C99.5 30.6646 100.144 31.0466 100.975 31.0466C101.789 31.0466 102.428 30.6566 102.889 29.8786C103.282 29.2336 103.48 28.4666 103.48 27.5826Z" fill="white"/>
<path d="M112.62 24.6697C112.409 24.6307 112.184 24.6107 111.948 24.6107C111.198 24.6107 110.618 24.8937 110.21 25.4607C109.855 25.9607 109.677 26.5927 109.677 27.3557V32.3907H107.546L107.566 25.8167C107.566 24.7107 107.539 23.7037 107.486 22.7957H109.343L109.421 24.6317H109.48C109.705 24.0007 110.06 23.4927 110.546 23.1117C111.021 22.7687 111.534 22.5977 112.087 22.5977C112.284 22.5977 112.462 22.6117 112.62 22.6367V24.6697Z" fill="white"/>
<path d="M122.157 27.1391C122.157 27.5211 122.132 27.8431 122.079 28.1061H115.683C115.708 29.0541 116.017 29.7791 116.611 30.2791C117.15 30.7261 117.847 30.9501 118.703 30.9501C119.65 30.9501 120.514 30.7991 121.291 30.4961L121.625 31.9761C120.717 32.3721 119.645 32.5691 118.408 32.5691C116.92 32.5691 115.752 32.1311 114.902 31.2561C114.054 30.3811 113.629 29.2061 113.629 27.7321C113.629 26.2851 114.024 25.0801 114.815 24.1191C115.643 23.0931 116.762 22.5801 118.17 22.5801C119.553 22.5801 120.6 23.0931 121.311 24.1191C121.874 24.9341 122.157 25.9421 122.157 27.1391ZM120.124 26.5861C120.138 25.9541 119.999 25.4081 119.71 24.9471C119.341 24.3541 118.774 24.0581 118.011 24.0581C117.314 24.0581 116.747 24.3471 116.314 24.9271C115.959 25.3881 115.748 25.9411 115.683 26.5851H120.124V26.5861Z" fill="white"/>
<path d="M49.0498 10.8954C49.0498 12.0724 48.6968 12.9584 47.9918 13.5534C47.3388 14.1024 46.4108 14.3774 45.2088 14.3774C44.6128 14.3774 44.1028 14.3514 43.6758 14.2994V7.86842C44.2328 7.77842 44.8328 7.73242 45.4808 7.73242C46.6258 7.73242 47.4888 7.98142 48.0708 8.47942C48.7228 9.04242 49.0498 9.84742 49.0498 10.8954ZM47.9448 10.9244C47.9448 10.1614 47.7428 9.57642 47.3388 9.16842C46.9348 8.76142 46.3448 8.55742 45.5678 8.55742C45.2378 8.55742 44.9568 8.57942 44.7238 8.62542V13.5144C44.8528 13.5344 45.0888 13.5434 45.4318 13.5434C46.2338 13.5434 46.8528 13.3204 47.2888 12.8744C47.7248 12.4284 47.9448 11.7784 47.9448 10.9244Z" fill="white"/>
<path d="M54.908 11.9238C54.908 12.6488 54.701 13.2428 54.287 13.7088C53.853 14.1878 53.278 14.4268 52.56 14.4268C51.868 14.4268 51.317 14.1978 50.906 13.7378C50.496 13.2788 50.291 12.6998 50.291 12.0018C50.291 11.2718 50.502 10.6728 50.926 10.2078C51.35 9.74277 51.92 9.50977 52.638 9.50977C53.33 9.50977 53.886 9.73877 54.307 10.1978C54.707 10.6438 54.908 11.2198 54.908 11.9238ZM53.821 11.9578C53.821 11.5228 53.727 11.1498 53.54 10.8388C53.32 10.4628 53.007 10.2748 52.6 10.2748C52.179 10.2748 51.859 10.4628 51.639 10.8388C51.451 11.1498 51.358 11.5288 51.358 11.9768C51.358 12.4118 51.452 12.7848 51.639 13.0958C51.866 13.4718 52.182 13.6598 52.59 13.6598C52.99 13.6598 53.304 13.4688 53.53 13.0858C53.724 12.7688 53.821 12.3928 53.821 11.9578Z" fill="white"/>
<path d="M62.7655 9.60547L61.2905 14.3195H60.3305L59.7195 12.2725C59.5645 11.7615 59.4385 11.2535 59.3405 10.7495H59.3215C59.2305 11.2675 59.1045 11.7745 58.9425 12.2725L58.2935 14.3195H57.3225L55.9355 9.60547H57.0125L57.5455 11.8465C57.6745 12.3765 57.7805 12.8815 57.8655 13.3595H57.8845C57.9625 12.9655 58.0915 12.4635 58.2735 11.8565L58.9425 9.60647H59.7965L60.4375 11.8085C60.5925 12.3455 60.7185 12.8625 60.8155 13.3605H60.8445C60.9155 12.8755 61.0225 12.3585 61.1645 11.8085L61.7365 9.60647H62.7655V9.60547Z" fill="white"/>
<path d="M68.1984 14.3198H67.1504V11.6198C67.1504 10.7878 66.8344 10.3718 66.2004 10.3718C65.8894 10.3718 65.6384 10.4858 65.4434 10.7148C65.2504 10.9438 65.1524 11.2138 65.1524 11.5228V14.3188H64.1044V10.9528C64.1044 10.5388 64.0914 10.0898 64.0664 9.60384H64.9874L65.0364 10.3408H65.0654C65.1874 10.1118 65.3694 9.92284 65.6084 9.77184C65.8924 9.59584 66.2104 9.50684 66.5584 9.50684C66.9984 9.50684 67.3644 9.64884 67.6554 9.93384C68.0174 10.2828 68.1984 10.8038 68.1984 11.4958V14.3198Z" fill="white"/>
<path d="M71.088 14.3194H70.041V7.44238H71.088V14.3194Z" fill="white"/>
<path d="M77.2576 11.9238C77.2576 12.6488 77.0506 13.2428 76.6366 13.7088C76.2026 14.1878 75.6266 14.4268 74.9096 14.4268C74.2166 14.4268 73.6656 14.1978 73.2556 13.7378C72.8456 13.2788 72.6406 12.6998 72.6406 12.0018C72.6406 11.2718 72.8516 10.6728 73.2756 10.2078C73.6996 9.74277 74.2696 9.50977 74.9866 9.50977C75.6796 9.50977 76.2346 9.73877 76.6566 10.1978C77.0566 10.6438 77.2576 11.2198 77.2576 11.9238ZM76.1696 11.9578C76.1696 11.5228 76.0756 11.1498 75.8886 10.8388C75.6696 10.4628 75.3556 10.2748 74.9496 10.2748C74.5276 10.2748 74.2076 10.4628 73.9886 10.8388C73.8006 11.1498 73.7076 11.5288 73.7076 11.9768C73.7076 12.4118 73.8016 12.7848 73.9886 13.0958C74.2156 13.4718 74.5316 13.6598 74.9396 13.6598C75.3396 13.6598 75.6526 13.4688 75.8786 13.0858C76.0736 12.7688 76.1696 12.3928 76.1696 11.9578Z" fill="white"/>
<path d="M82.329 14.3198H81.388L81.31 13.7768H81.281C80.959 14.2098 80.5 14.4268 79.904 14.4268C79.459 14.4268 79.099 14.2838 78.828 13.9998C78.582 13.7418 78.459 13.4208 78.459 13.0398C78.459 12.4638 78.699 12.0248 79.182 11.7208C79.664 11.4168 80.342 11.2678 81.215 11.2748V11.1868C81.215 10.5658 80.889 10.2558 80.236 10.2558C79.771 10.2558 79.361 10.3728 79.007 10.6048L78.794 9.91677C79.232 9.64577 79.773 9.50977 80.411 9.50977C81.643 9.50977 82.261 10.1598 82.261 11.4598V13.1958C82.261 13.6668 82.284 14.0418 82.329 14.3198ZM81.241 12.6998V11.9728C80.085 11.9528 79.507 12.2698 79.507 12.9228C79.507 13.1688 79.573 13.3528 79.708 13.4758C79.843 13.5988 80.015 13.6598 80.22 13.6598C80.45 13.6598 80.665 13.5868 80.861 13.4418C81.058 13.2958 81.179 13.1108 81.224 12.8838C81.235 12.8328 81.241 12.7708 81.241 12.6998Z" fill="white"/>
<path d="M88.2852 14.3194H87.3552L87.3062 13.5624H87.2772C86.9802 14.1384 86.4742 14.4264 85.7632 14.4264C85.1952 14.4264 84.7222 14.2034 84.3472 13.7574C83.9722 13.3114 83.7852 12.7324 83.7852 12.0214C83.7852 11.2584 83.9882 10.6404 84.3962 10.1684C84.7912 9.72838 85.2752 9.50838 85.8512 9.50838C86.4842 9.50838 86.9272 9.72138 87.1792 10.1484H87.1992V7.44238H88.2482V13.0494C88.2482 13.5084 88.2602 13.9314 88.2852 14.3194ZM87.1992 12.3314V11.5454C87.1992 11.4094 87.1892 11.2994 87.1702 11.2154C87.1112 10.9634 86.9842 10.7514 86.7912 10.5804C86.5962 10.4094 86.3611 10.3234 86.0901 10.3234C85.6991 10.3234 85.3932 10.4784 85.1682 10.7894C84.9452 11.1004 84.8322 11.4974 84.8322 11.9824C84.8322 12.4484 84.9392 12.8264 85.1542 13.1174C85.3812 13.4274 85.6872 13.5824 86.0702 13.5824C86.4142 13.5824 86.6892 13.4534 86.8982 13.1944C87.1002 12.9554 87.1992 12.6674 87.1992 12.3314Z" fill="white"/>
<path d="M97.2479 11.9238C97.2479 12.6488 97.0409 13.2428 96.6269 13.7088C96.1929 14.1878 95.6189 14.4268 94.8999 14.4268C94.2089 14.4268 93.6579 14.1978 93.2459 13.7378C92.8359 13.2788 92.6309 12.6998 92.6309 12.0018C92.6309 11.2718 92.8419 10.6728 93.2659 10.2078C93.6899 9.74277 94.2599 9.50977 94.9789 9.50977C95.6699 9.50977 96.2269 9.73877 96.6469 10.1978C97.0469 10.6438 97.2479 11.2198 97.2479 11.9238ZM96.1619 11.9578C96.1619 11.5228 96.0679 11.1498 95.8809 10.8388C95.6599 10.4628 95.3479 10.2748 94.9399 10.2748C94.5199 10.2748 94.1999 10.4628 93.9789 10.8388C93.7909 11.1498 93.6979 11.5288 93.6979 11.9768C93.6979 12.4118 93.7919 12.7848 93.9789 13.0958C94.2059 13.4718 94.5219 13.6598 94.9299 13.6598C95.3299 13.6598 95.6449 13.4688 95.8709 13.0858C96.0639 12.7688 96.1619 12.3928 96.1619 11.9578Z" fill="white"/>
<path d="M102.883 14.3198H101.836V11.6198C101.836 10.7878 101.52 10.3718 100.885 10.3718C100.574 10.3718 100.323 10.4858 100.129 10.7148C99.935 10.9438 99.838 11.2138 99.838 11.5228V14.3188H98.789V10.9528C98.789 10.5388 98.777 10.0898 98.752 9.60384H99.672L99.721 10.3408H99.75C99.873 10.1118 100.055 9.92284 100.293 9.77184C100.578 9.59584 100.895 9.50684 101.244 9.50684C101.683 9.50684 102.049 9.64884 102.34 9.93384C102.703 10.2828 102.883 10.8038 102.883 11.4958V14.3198Z" fill="white"/>
<path d="M109.935 10.3906H108.781V12.6806C108.781 13.2626 108.986 13.5536 109.392 13.5536C109.58 13.5536 109.736 13.5376 109.859 13.5046L109.886 14.2996C109.679 14.3776 109.407 14.4166 109.072 14.4166C108.658 14.4166 108.336 14.2906 108.103 14.0386C107.869 13.7866 107.753 13.3626 107.753 12.7676V10.3906H107.064V9.60564H107.753V8.74164L108.78 8.43164V9.60464H109.934V10.3906H109.935Z" fill="white"/>
<path d="M115.485 14.3194H114.436V11.6394C114.436 10.7944 114.12 10.3714 113.487 10.3714C113.001 10.3714 112.669 10.6164 112.487 11.1064C112.456 11.2094 112.438 11.3354 112.438 11.4834V14.3184H111.391V7.44238H112.438V10.2834H112.458C112.788 9.76638 113.261 9.50838 113.874 9.50838C114.308 9.50838 114.667 9.65038 114.952 9.93538C115.307 10.2904 115.485 10.8184 115.485 11.5164V14.3194Z" fill="white"/>
<path d="M121.207 11.739C121.207 11.927 121.193 12.085 121.168 12.214H118.025C118.039 12.68 118.189 13.035 118.48 13.281C118.746 13.501 119.089 13.611 119.509 13.611C119.974 13.611 120.398 13.537 120.78 13.388L120.944 14.116C120.497 14.31 119.971 14.407 119.362 14.407C118.632 14.407 118.057 14.192 117.641 13.762C117.223 13.332 117.016 12.755 117.016 12.031C117.016 11.32 117.209 10.728 117.598 10.256C118.004 9.752 118.553 9.5 119.246 9.5C119.924 9.5 120.439 9.752 120.787 10.256C121.068 10.656 121.207 11.151 121.207 11.739ZM120.207 11.468C120.215 11.157 120.146 10.889 120.004 10.663C119.822 10.372 119.545 10.226 119.17 10.226C118.828 10.226 118.549 10.368 118.336 10.653C118.162 10.88 118.059 11.151 118.025 11.468H120.207Z" fill="white"/>
</g>
<defs>
<clipPath id="clip0_7602_1450">
<rect width="135" height="40" fill="white" transform="translate(0 0.886719)"/>
</clipPath>
</defs>
</svg>
