<svg width="135" height="41" viewBox="0 0 135 41" fill="none" xmlns="http://www.w3.org/2000/svg">
<g clip-path="url(#clip0_7602_1441)">
<path d="M129.998 40.8869H5.00186C2.25189 40.8869 0.00195312 38.637 0.00195312 35.887V5.8876C0.00195312 3.13763 2.25189 0.887695 5.00186 0.887695H129.998C132.748 0.887695 134.998 3.13763 134.998 5.8876V35.887C134.998 38.637 132.748 40.8869 129.998 40.8869Z" fill="#100F0D"/>
<path d="M129.998 0.887695H5.00186C2.25189 0.887695 0.00195312 3.13763 0.00195312 5.8876V35.887C0.00195312 38.637 2.25189 40.8869 5.00186 40.8869H129.998C132.748 40.8869 134.998 38.637 134.998 35.887V5.8876C134.998 3.13763 132.748 0.887695 129.998 0.887695ZM129.998 1.68728C132.314 1.68728 134.198 3.57166 134.198 5.8876V35.887C134.198 38.203 132.314 40.0874 129.998 40.0874H5.00186C2.68592 40.0874 0.802358 38.203 0.802358 35.887V5.8876C0.802358 3.57166 2.68592 1.68728 5.00186 1.68728H129.998Z" fill="#A2A2A1"/>
<path d="M106.936 30.8874H108.802V18.3855H106.936V30.8874ZM123.743 22.8893L121.604 28.3092H121.54L119.32 22.8893H117.31L120.64 30.4644L118.741 34.6783H120.687L125.818 22.8897L123.743 22.8893ZM113.16 29.4673C112.55 29.4673 111.697 29.1614 111.697 28.4056C111.697 27.4407 112.759 27.0708 113.675 27.0708C114.495 27.0708 114.882 27.2474 115.38 27.4888C115.235 28.647 114.238 29.4673 113.16 29.4673L113.16 29.4673ZM113.386 22.6159C112.035 22.6159 110.636 23.2112 110.057 24.53L111.713 25.2213C112.067 24.53 112.726 24.305 113.418 24.305C114.383 24.305 115.364 24.8835 115.38 25.9132V26.0416C115.042 25.8486 114.318 25.5593 113.434 25.5593C111.648 25.5593 109.831 26.54 109.831 28.3736C109.831 30.0462 111.295 31.1239 112.935 31.1239C114.189 31.1239 114.882 30.561 115.315 29.9013H115.38V30.8669H117.182V26.0736C117.182 23.8541 115.524 22.6159 113.386 22.6159V22.6159ZM101.854 24.4112H99.2001V20.1262H101.854C103.249 20.1262 104.041 21.2809 104.041 22.2686C104.041 23.2374 103.249 24.4112 101.854 24.4112ZM101.806 18.3858H97.3349V30.8877H99.2001V26.1515H101.806C103.874 26.1515 105.907 24.6546 105.907 22.2691C105.907 19.884 103.874 18.3864 101.806 18.3864L101.806 18.3858ZM77.4256 29.4694C76.1365 29.4694 75.0576 28.3897 75.0576 26.9082C75.0576 25.4093 76.1365 24.3144 77.4256 24.3144C78.6983 24.3144 79.6971 25.4094 79.6971 26.9082C79.6971 28.3897 78.6983 29.4694 77.4256 29.4694ZM79.5682 23.5892H79.5037C79.085 23.0899 78.2791 22.6387 77.2647 22.6387C75.1377 22.6387 73.1885 24.5078 73.1885 26.9082C73.1885 29.2921 75.1377 31.1448 77.2647 31.1448C78.2791 31.1448 79.0849 30.6936 79.5037 30.1784H79.5682V30.7901C79.5682 32.4178 78.6983 33.2873 77.2967 33.2873C76.1533 33.2873 75.4444 32.4658 75.1542 31.7732L73.5273 32.4497C73.9941 33.577 75.2343 34.963 77.2968 34.963C79.4881 34.963 81.3408 33.6739 81.3408 30.5322V22.8964H79.5682L79.5682 23.5892ZM82.6298 30.887H84.4978V18.3852H82.6298V30.887ZM87.2529 26.7629C87.2048 25.1195 88.5262 24.282 89.4762 24.282C90.2176 24.282 90.8453 24.6527 91.0555 25.184L87.2529 26.7629ZM93.0523 25.3449C92.6981 24.395 91.6188 22.6387 89.4118 22.6387C87.2204 22.6387 85.4001 24.3625 85.4001 26.8918C85.4001 29.2761 87.2048 31.1449 89.6208 31.1449C91.57 31.1449 92.6981 29.9531 93.1656 29.2601L91.7156 28.2933C91.2321 29.0023 90.5719 29.4695 89.6208 29.4695C88.6708 29.4695 87.9939 29.0344 87.5595 28.1805L93.2457 25.8286L93.0523 25.3449ZM47.7453 23.9438V25.748H52.0627C51.9338 26.7629 51.5955 27.5039 51.0799 28.0195C50.4514 28.6476 49.4687 29.3406 47.7452 29.3406C45.087 29.3406 43.009 27.198 43.009 24.5399C43.009 21.8817 45.087 19.7389 47.7452 19.7389C49.1791 19.7389 50.226 20.3028 50.9994 21.0278L52.2724 19.7548C51.1927 18.724 49.7591 17.9346 47.7452 17.9346C44.1038 17.9346 41.043 20.8989 41.043 24.5399C41.043 28.1805 44.1038 31.1449 47.7452 31.1449C49.7104 31.1449 51.1928 30.5004 52.3525 29.2922C53.5447 28.1 53.9154 26.4246 53.9154 25.0712C53.9154 24.6528 53.8829 24.2661 53.8185 23.9438H47.7453ZM58.8244 29.4694C57.5353 29.4694 56.4236 28.4061 56.4236 26.8918C56.4236 25.3613 57.5353 24.3145 58.8244 24.3145C60.113 24.3145 61.2246 25.3613 61.2246 26.8918C61.2246 28.4061 60.113 29.4694 58.8244 29.4694ZM58.8244 22.6387C56.4716 22.6387 54.5548 24.4269 54.5548 26.8918C54.5548 29.3406 56.4716 31.1449 58.8244 31.1449C61.1762 31.1449 63.0934 29.3406 63.0934 26.8918C63.0934 24.4269 61.1762 22.6387 58.8244 22.6387ZM68.1372 29.4694C66.849 29.4694 65.7369 28.4061 65.7369 26.8918C65.7369 25.3613 66.8491 24.3145 68.1372 24.3145C69.4263 24.3145 70.5376 25.3613 70.5376 26.8918C70.5376 28.4061 69.4263 29.4694 68.1372 29.4694ZM68.1372 22.6387C65.7853 22.6387 63.8685 24.4269 63.8685 26.8918C63.8685 29.3406 65.7853 31.1449 68.1372 31.1449C70.49 31.1449 72.4067 29.3406 72.4067 26.8918C72.4067 24.4269 70.49 22.6387 68.1372 22.6387Z" fill="white"/>
<path d="M20.7159 20.3107L10.0703 31.6103C10.0707 31.6126 10.0715 31.6145 10.0719 31.6169C10.3984 32.8439 11.5191 33.7474 12.8492 33.7474C13.3808 33.7474 13.88 33.6036 14.3081 33.3513L14.3421 33.3314L26.3257 26.4163L20.7164 20.3105" fill="#EB3131"/>
<path d="M31.4873 18.3871L31.4771 18.3801L26.3034 15.3809L20.4746 20.5676L26.3237 26.4159L31.4701 23.4465C32.3723 22.9594 32.9848 22.0082 32.9848 20.9113C32.9848 19.8223 32.3806 18.8759 31.4872 18.3872" fill="#F6B60B"/>
<path d="M10.0703 10.1641C10.0063 10.4001 9.97266 10.6473 9.97266 10.9039V30.8713C9.97266 31.1275 10.0059 31.3756 10.0707 31.6107L21.0838 20.5999L10.0707 10.1643" fill="#5778C5"/>
<path d="M20.7954 20.8883L26.3059 15.3794L14.3358 8.43932C13.9007 8.17872 13.3929 8.02832 12.8496 8.02832C11.5195 8.02832 10.3973 8.93343 10.0707 10.1619C10.0703 10.1631 10.0703 10.1639 10.0703 10.1649L20.7954 20.8885" fill="#3BAD49"/>
<path d="M47.3952 10.6686H44.4781V11.3905H46.6641C46.6047 11.9796 46.3703 12.4421 45.975 12.778C45.5797 13.114 45.075 13.2827 44.4781 13.2827C43.8234 13.2827 43.2687 13.0546 42.8142 12.6015C42.3688 12.139 42.1423 11.5671 42.1423 10.8781C42.1423 10.1891 42.3688 9.61715 42.8142 9.1547C43.2687 8.7016 43.8234 8.47501 44.4781 8.47501C44.8141 8.47501 45.1344 8.53281 45.4281 8.65941C45.7219 8.7859 45.9578 8.9625 46.1422 9.1891L46.6968 8.63441C46.4452 8.34842 46.1266 8.12972 45.7311 7.97033C45.3358 7.81093 44.9234 7.73443 44.478 7.73443C43.6047 7.73443 42.8641 8.03752 42.2594 8.64223C41.6547 9.24842 41.3516 9.99532 41.3516 10.8781C41.3516 11.7608 41.6547 12.5093 42.2594 13.1141C42.8641 13.7186 43.6047 14.0219 44.478 14.0219C45.3952 14.0219 46.1265 13.7281 46.689 13.1312C47.1843 12.6344 47.4374 11.9625 47.4374 11.1219C47.4374 10.9797 47.4202 10.8281 47.3952 10.6687L47.3952 10.6686ZM48.5253 7.86867V13.8874H52.0393V13.1483H49.2988V11.239H51.7706V10.5171H49.2988V8.60934H52.0393V7.86865L48.5253 7.86867ZM56.9667 8.60936V7.86867H52.8308V8.60936H54.512V13.8874H55.2854V8.60936H56.9667ZM60.7111 7.86867H59.9376V13.8874H60.7111V7.86867ZM65.816 8.60936V7.86867H61.6802V8.60936H63.3613V13.8874H64.1347V8.60936H65.816ZM73.6206 8.65156C73.0237 8.03747 72.2925 7.73438 71.419 7.73438C70.5441 7.73438 69.8129 8.03747 69.216 8.64218C68.6191 9.23907 68.3254 9.98746 68.3254 10.878C68.3254 11.7686 68.6191 12.5171 69.216 13.114C69.8128 13.7186 70.5441 14.0218 71.419 14.0218C72.2846 14.0218 73.0236 13.7186 73.6206 13.114C74.2175 12.5171 74.5111 11.7687 74.5111 10.878C74.5111 9.99526 74.2174 9.24833 73.6206 8.65156ZM69.7707 9.15464C70.216 8.70155 70.7628 8.47496 71.419 8.47496C72.0737 8.47496 72.6206 8.70156 73.0581 9.15464C73.5034 9.59994 73.7221 10.1811 73.7221 10.878C73.7221 11.5765 73.5034 12.1561 73.0581 12.6014C72.6206 13.0545 72.0737 13.2826 71.419 13.2826C70.7628 13.2826 70.2159 13.0545 69.7707 12.6014C69.3347 12.1467 69.116 11.5765 69.116 10.878C69.116 10.1811 69.3347 9.6093 69.7707 9.15464ZM76.3486 10.139L76.3159 8.97802H76.3486L79.408 13.8873H80.2157V7.86861H79.4423V11.3904L79.4751 12.5514H79.4423L76.5174 7.86861H75.5752V13.8873H76.3486V10.139Z" fill="white" stroke="white" stroke-width="0.26666" stroke-miterlimit="10"/>
</g>
<defs>
<clipPath id="clip0_7602_1441">
<rect width="135.001" height="40" fill="white" transform="translate(0 0.886719)"/>
</clipPath>
</defs>
</svg>
