<svg width="354" height="308" viewBox="0 0 354 308" fill="none" xmlns="http://www.w3.org/2000/svg">
<rect width="354" height="308" rx="8" fill="#B4B9C9"/>
<g opacity="0.26" filter="url(#filter0_d_2094_198)">
<rect x="145.058" y="91.5577" width="63.8846" height="63.8846" rx="4.44231" fill="#F1F3F7" stroke="#6D758F" stroke-width="2.11538"/>
<mask id="mask0_2094_198" style="mask-type:alpha" maskUnits="userSpaceOnUse" x="146" y="93" width="62" height="62">
<rect x="146.311" y="93.0433" width="61.343" height="61.3283" rx="2.75" fill="#E1E4ED"/>
</mask>
<g mask="url(#mask0_2094_198)">
<line x1="189.111" y1="90.5001" x2="189.111" y2="159.316" stroke="#B4B9C9" stroke-width="1.375"/>
<line x1="200.534" y1="90.5001" x2="200.534" y2="159.316" stroke="#B4B9C9" stroke-width="1.375"/>
<line x1="177.688" y1="90.5001" x2="177.688" y2="159.316" stroke="#B4B9C9" stroke-width="1.375"/>
<line x1="154.841" y1="90.5001" x2="154.841" y2="159.316" stroke="#B4B9C9" stroke-width="1.375"/>
<line x1="166.264" y1="90.5001" x2="166.264" y2="159.316" stroke="#B4B9C9" stroke-width="1.375"/>
<line x1="142.592" y1="112.797" x2="211.408" y2="112.797" stroke="#B4B9C9" stroke-width="1.375"/>
<line x1="142.592" y1="101.374" x2="211.408" y2="101.374" stroke="#B4B9C9" stroke-width="1.375"/>
<line x1="142.592" y1="124.221" x2="211.408" y2="124.221" stroke="#B4B9C9" stroke-width="1.375"/>
<line x1="142.592" y1="147.067" x2="211.408" y2="147.067" stroke="#B4B9C9" stroke-width="1.375"/>
<line x1="142.592" y1="135.644" x2="211.408" y2="135.644" stroke="#B4B9C9" stroke-width="1.375"/>
<rect x="145.034" y="91.7031" width="63.6927" height="63.6775" rx="4.125" fill="url(#paint0_radial_2094_198)"/>
<g filter="url(#filter1_d_2094_198)">
<rect x="162.891" y="112.759" width="28.0195" height="24.8076" fill="white"/>
<path d="M161.602 132.203L167.435 124.784C169.088 122.68 172.252 122.611 173.996 124.641L179.124 130.61M174.696 125.455C176.899 122.653 179.968 118.684 180.168 118.425C180.175 118.416 180.181 118.407 180.189 118.398C181.846 116.308 184.999 116.244 186.739 118.269L191.867 124.238M165.85 139.105H188.15C190.496 139.105 192.398 137.204 192.398 134.858V112.557C192.398 110.211 190.496 108.309 188.15 108.309H165.85C163.504 108.309 161.602 110.211 161.602 112.557V134.858C161.602 137.204 163.504 139.105 165.85 139.105Z" fill="white"/>
<path d="M161.602 132.203L167.435 124.784C169.088 122.68 172.252 122.611 173.996 124.641L179.124 130.61M174.696 125.455C176.899 122.653 179.968 118.684 180.168 118.425C180.175 118.416 180.181 118.407 180.189 118.398C181.846 116.308 184.999 116.244 186.739 118.269L191.867 124.238M165.85 139.105H188.15C190.496 139.105 192.398 137.204 192.398 134.858V112.557C192.398 110.211 190.496 108.309 188.15 108.309H165.85C163.504 108.309 161.602 110.211 161.602 112.557V134.858C161.602 137.204 163.504 139.105 165.85 139.105Z" stroke="#6D758F" stroke-width="1.69231" stroke-linecap="round" stroke-linejoin="round"/>
<path d="M188.847 138.251H165.666H165.12C163.601 138.251 162.37 137.02 162.37 135.501V133.43C162.37 132.8 162.586 132.19 162.982 131.7L168.648 124.697C169.727 123.363 171.752 123.333 172.871 124.635L178.491 131.174C178.699 131.416 179.027 131.52 179.337 131.441C179.945 131.287 180.176 130.545 179.764 130.073L175.756 125.471L181.302 118.333C182.361 116.971 184.398 116.909 185.538 118.204L191.597 125.088V135.501C191.597 137.02 190.366 138.251 188.847 138.251Z" fill="#E1E4ED"/>
</g>
</g>
</g>
<rect width="354" height="108" transform="translate(0 200)" fill="url(#paint1_linear_2094_198)"/>
<g filter="url(#filter2_d_2094_198)">
<rect x="245" y="15" width="93" height="36" rx="3" fill="white"/>
<rect x="245.5" y="15.5" width="92" height="35" rx="2.5" stroke="#F1F3F7"/>
<path d="M266.553 31.2898H264.428C264.368 30.9413 264.256 30.6326 264.093 30.3636C263.93 30.0909 263.728 29.8598 263.485 29.6705C263.243 29.4811 262.966 29.339 262.656 29.2443C262.349 29.1458 262.017 29.0966 261.661 29.0966C261.029 29.0966 260.468 29.2557 259.979 29.5739C259.491 29.8883 259.108 30.3504 258.832 30.9602C258.555 31.5663 258.417 32.3068 258.417 33.1818C258.417 34.072 258.555 34.822 258.832 35.4318C259.112 36.0379 259.495 36.4962 259.979 36.8068C260.468 37.1136 261.027 37.267 261.656 37.267C262.004 37.267 262.33 37.2216 262.633 37.1307C262.94 37.036 263.214 36.8977 263.457 36.7159C263.703 36.5341 263.909 36.3106 264.076 36.0455C264.246 35.7803 264.364 35.4773 264.428 35.1364L266.553 35.1477C266.474 35.7008 266.301 36.2197 266.036 36.7045C265.775 37.1894 265.432 37.6174 265.008 37.9886C264.584 38.3561 264.087 38.6439 263.519 38.8523C262.951 39.0568 262.32 39.1591 261.627 39.1591C260.604 39.1591 259.692 38.9223 258.888 38.4489C258.085 37.9754 257.453 37.2917 256.991 36.3977C256.529 35.5038 256.298 34.4318 256.298 33.1818C256.298 31.928 256.531 30.8561 256.996 29.9659C257.462 29.072 258.097 28.3883 258.9 27.9148C259.703 27.4413 260.612 27.2045 261.627 27.2045C262.275 27.2045 262.877 27.2955 263.434 27.4773C263.991 27.6591 264.487 27.9261 264.923 28.2784C265.358 28.6269 265.716 29.0549 265.996 29.5625C266.281 30.0663 266.466 30.642 266.553 31.2898ZM270.904 39.1761C270.351 39.1761 269.853 39.0777 269.41 38.8807C268.97 38.6799 268.622 38.3845 268.364 37.9943C268.111 37.6042 267.984 37.1231 267.984 36.5511C267.984 36.0587 268.075 35.6515 268.256 35.3295C268.438 35.0076 268.686 34.75 269.001 34.5568C269.315 34.3636 269.669 34.2178 270.063 34.1193C270.461 34.017 270.872 33.9432 271.296 33.8977C271.808 33.8447 272.222 33.7973 272.54 33.7557C272.859 33.7102 273.09 33.642 273.234 33.5511C273.381 33.4564 273.455 33.3106 273.455 33.1136V33.0795C273.455 32.6515 273.328 32.3201 273.075 32.0852C272.821 31.8504 272.455 31.733 271.978 31.733C271.474 31.733 271.075 31.8428 270.779 32.0625C270.487 32.2822 270.29 32.5417 270.188 32.8409L268.268 32.5682C268.419 32.0379 268.669 31.5947 269.018 31.2386C269.366 30.8788 269.792 30.6098 270.296 30.4318C270.8 30.25 271.357 30.1591 271.967 30.1591C272.387 30.1591 272.806 30.2083 273.222 30.3068C273.639 30.4053 274.02 30.5682 274.364 30.7955C274.709 31.0189 274.986 31.3239 275.194 31.7102C275.406 32.0966 275.512 32.5795 275.512 33.1591V39H273.535V37.8011H273.467C273.342 38.0436 273.165 38.2708 272.938 38.483C272.715 38.6913 272.433 38.8598 272.092 38.9886C271.754 39.1136 271.359 39.1761 270.904 39.1761ZM271.438 37.6648C271.851 37.6648 272.209 37.5833 272.512 37.4205C272.815 37.2538 273.048 37.0341 273.211 36.7614C273.378 36.4886 273.461 36.1913 273.461 35.8693V34.8409C273.397 34.8939 273.287 34.9432 273.131 34.9886C272.98 35.0341 272.809 35.0739 272.62 35.108C272.431 35.142 272.243 35.1723 272.058 35.1989C271.872 35.2254 271.711 35.2481 271.575 35.267C271.268 35.3087 270.993 35.3769 270.751 35.4716C270.508 35.5663 270.317 35.6989 270.177 35.8693C270.037 36.036 269.967 36.2519 269.967 36.517C269.967 36.8958 270.105 37.1818 270.381 37.375C270.658 37.5682 271.01 37.6648 271.438 37.6648ZM281.938 30.2727V31.8636H276.921V30.2727H281.938ZM278.16 28.1818H280.217V36.375C280.217 36.6515 280.258 36.8636 280.342 37.0114C280.429 37.1553 280.542 37.2538 280.683 37.3068C280.823 37.3598 280.978 37.3864 281.148 37.3864C281.277 37.3864 281.395 37.3769 281.501 37.358C281.611 37.339 281.694 37.322 281.751 37.3068L282.097 38.9148C281.987 38.9527 281.83 38.9943 281.626 39.0398C281.425 39.0852 281.179 39.1117 280.887 39.1193C280.372 39.1345 279.908 39.0568 279.495 38.8864C279.082 38.7121 278.754 38.4432 278.512 38.0795C278.273 37.7159 278.156 37.2614 278.16 36.7159V28.1818ZM287.428 39.1705C286.553 39.1705 285.798 38.9886 285.161 38.625C284.529 38.2576 284.042 37.7386 283.701 37.0682C283.36 36.3939 283.19 35.6004 283.19 34.6875C283.19 33.7898 283.36 33.0019 283.701 32.3239C284.046 31.642 284.527 31.1117 285.144 30.733C285.762 30.3504 286.487 30.1591 287.32 30.1591C287.858 30.1591 288.366 30.2462 288.843 30.4205C289.324 30.5909 289.748 30.8561 290.116 31.2159C290.487 31.5758 290.779 32.0341 290.991 32.5909C291.203 33.1439 291.309 33.803 291.309 34.5682V35.1989H284.156V33.8125H289.337C289.334 33.4186 289.248 33.0682 289.082 32.7614C288.915 32.4508 288.682 32.2064 288.383 32.0284C288.087 31.8504 287.743 31.7614 287.349 31.7614C286.928 31.7614 286.559 31.8636 286.241 32.0682C285.923 32.2689 285.674 32.5341 285.496 32.8636C285.322 33.1894 285.233 33.5473 285.229 33.9375V35.1477C285.229 35.6553 285.322 36.0909 285.508 36.4545C285.693 36.8144 285.953 37.0909 286.286 37.2841C286.62 37.4735 287.01 37.5682 287.457 37.5682C287.756 37.5682 288.027 37.5265 288.269 37.4432C288.512 37.3561 288.722 37.2292 288.9 37.0625C289.078 36.8958 289.212 36.6894 289.303 36.4432L291.224 36.6591C291.103 37.1667 290.871 37.6098 290.531 37.9886C290.193 38.3636 289.762 38.6553 289.235 38.8636C288.709 39.0682 288.106 39.1705 287.428 39.1705ZM296.844 42.4545C296.106 42.4545 295.471 42.3542 294.941 42.1534C294.411 41.9564 293.985 41.6913 293.663 41.358C293.341 41.0246 293.117 40.6553 292.992 40.25L294.844 39.8011C294.928 39.9716 295.049 40.1402 295.208 40.3068C295.367 40.4773 295.581 40.6174 295.85 40.7273C296.123 40.8409 296.466 40.8977 296.879 40.8977C297.462 40.8977 297.945 40.7557 298.327 40.4716C298.71 40.1913 298.901 39.7292 298.901 39.0852V37.4318H298.799C298.693 37.6439 298.538 37.8617 298.333 38.0852C298.132 38.3087 297.865 38.4962 297.532 38.6477C297.202 38.7992 296.788 38.875 296.288 38.875C295.617 38.875 295.009 38.7178 294.464 38.4034C293.922 38.0852 293.49 37.6117 293.168 36.983C292.85 36.3504 292.691 35.5587 292.691 34.608C292.691 33.6496 292.85 32.8409 293.168 32.1818C293.49 31.5189 293.924 31.017 294.469 30.6761C295.015 30.3314 295.623 30.1591 296.293 30.1591C296.805 30.1591 297.225 30.2462 297.555 30.4205C297.888 30.5909 298.153 30.7973 298.35 31.0398C298.547 31.2784 298.697 31.5038 298.799 31.7159H298.913V30.2727H300.941V39.142C300.941 39.8883 300.763 40.5057 300.407 40.9943C300.051 41.483 299.564 41.8485 298.947 42.0909C298.329 42.3333 297.629 42.4545 296.844 42.4545ZM296.862 37.2614C297.297 37.2614 297.668 37.1553 297.975 36.9432C298.282 36.7311 298.515 36.4261 298.674 36.0284C298.833 35.6307 298.913 35.1534 298.913 34.5966C298.913 34.0473 298.833 33.5663 298.674 33.1534C298.519 32.7405 298.288 32.4205 297.981 32.1932C297.678 31.9621 297.305 31.8466 296.862 31.8466C296.403 31.8466 296.021 31.9659 295.714 32.2045C295.407 32.4432 295.176 32.7708 295.021 33.1875C294.865 33.6004 294.788 34.0701 294.788 34.5966C294.788 35.1307 294.865 35.5985 295.021 36C295.18 36.3977 295.413 36.7083 295.719 36.9318C296.03 37.1515 296.411 37.2614 296.862 37.2614ZM306.856 39.1705C306.004 39.1705 305.265 38.983 304.64 38.608C304.015 38.233 303.53 37.7083 303.185 37.0341C302.844 36.3598 302.674 35.572 302.674 34.6705C302.674 33.7689 302.844 32.9792 303.185 32.3011C303.53 31.6231 304.015 31.0966 304.64 30.7216C305.265 30.3466 306.004 30.1591 306.856 30.1591C307.708 30.1591 308.447 30.3466 309.072 30.7216C309.697 31.0966 310.18 31.6231 310.521 32.3011C310.865 32.9792 311.038 33.7689 311.038 34.6705C311.038 35.572 310.865 36.3598 310.521 37.0341C310.18 37.7083 309.697 38.233 309.072 38.608C308.447 38.983 307.708 39.1705 306.856 39.1705ZM306.867 37.5227C307.329 37.5227 307.716 37.3958 308.026 37.142C308.337 36.8845 308.568 36.5398 308.719 36.108C308.875 35.6761 308.952 35.1951 308.952 34.6648C308.952 34.1307 308.875 33.6477 308.719 33.2159C308.568 32.7803 308.337 32.4337 308.026 32.1761C307.716 31.9186 307.329 31.7898 306.867 31.7898C306.394 31.7898 306 31.9186 305.685 32.1761C305.375 32.4337 305.142 32.7803 304.987 33.2159C304.835 33.6477 304.759 34.1307 304.759 34.6648C304.759 35.1951 304.835 35.6761 304.987 36.108C305.142 36.5398 305.375 36.8845 305.685 37.142C306 37.3958 306.394 37.5227 306.867 37.5227ZM312.783 39V30.2727H314.778V31.7273H314.869C315.028 31.2235 315.3 30.8352 315.687 30.5625C316.077 30.286 316.522 30.1477 317.022 30.1477C317.136 30.1477 317.263 30.1534 317.403 30.1648C317.547 30.1723 317.666 30.1856 317.761 30.2045V32.0966C317.674 32.0663 317.535 32.0398 317.346 32.017C317.16 31.9905 316.98 31.9773 316.806 31.9773C316.431 31.9773 316.094 32.0587 315.795 32.2216C315.499 32.3807 315.266 32.6023 315.096 32.8864C314.925 33.1705 314.84 33.4981 314.84 33.8693V39H312.783ZM320.671 42.2727C320.391 42.2727 320.131 42.25 319.893 42.2045C319.658 42.1629 319.47 42.1136 319.33 42.0568L319.808 40.4545C320.107 40.5417 320.374 40.5833 320.609 40.5795C320.844 40.5758 321.05 40.5019 321.228 40.358C321.41 40.2178 321.563 39.983 321.688 39.6534L321.864 39.1818L318.7 30.2727H320.881L322.893 36.8636H322.984L325.001 30.2727H327.188L323.694 40.0568C323.531 40.5189 323.315 40.9148 323.046 41.2443C322.777 41.5777 322.448 41.8314 322.058 42.0057C321.671 42.1837 321.209 42.2727 320.671 42.2727Z" fill="#6D758F"/>
</g>
<defs>
<filter id="filter0_d_2094_198" x="135.75" y="85" width="82.5" height="82.5" filterUnits="userSpaceOnUse" color-interpolation-filters="sRGB">
<feFlood flood-opacity="0" result="BackgroundImageFix"/>
<feColorMatrix in="SourceAlpha" type="matrix" values="0 0 0 0 0 0 0 0 0 0 0 0 0 0 0 0 0 0 127 0" result="hardAlpha"/>
<feOffset dy="2.75"/>
<feGaussianBlur stdDeviation="4.125"/>
<feComposite in2="hardAlpha" operator="out"/>
<feColorMatrix type="matrix" values="0 0 0 0 0.0969792 0 0 0 0 0.127894 0 0 0 0 0.2375 0 0 0 0.14 0"/>
<feBlend mode="normal" in2="BackgroundImageFix" result="effect1_dropShadow_2094_198"/>
<feBlend mode="normal" in="SourceGraphic" in2="effect1_dropShadow_2094_198" result="shape"/>
</filter>
<filter id="filter1_d_2094_198" x="155.256" y="103.338" width="43.4883" height="43.4883" filterUnits="userSpaceOnUse" color-interpolation-filters="sRGB">
<feFlood flood-opacity="0" result="BackgroundImageFix"/>
<feColorMatrix in="SourceAlpha" type="matrix" values="0 0 0 0 0 0 0 0 0 0 0 0 0 0 0 0 0 0 127 0" result="hardAlpha"/>
<feOffset dy="1.375"/>
<feGaussianBlur stdDeviation="2.75"/>
<feComposite in2="hardAlpha" operator="out"/>
<feColorMatrix type="matrix" values="0 0 0 0 0.0969792 0 0 0 0 0.127894 0 0 0 0 0.2375 0 0 0 0.08 0"/>
<feBlend mode="normal" in2="BackgroundImageFix" result="effect1_dropShadow_2094_198"/>
<feBlend mode="normal" in="SourceGraphic" in2="effect1_dropShadow_2094_198" result="shape"/>
</filter>
<filter id="filter2_d_2094_198" x="241" y="12" width="101" height="44" filterUnits="userSpaceOnUse" color-interpolation-filters="sRGB">
<feFlood flood-opacity="0" result="BackgroundImageFix"/>
<feColorMatrix in="SourceAlpha" type="matrix" values="0 0 0 0 0 0 0 0 0 0 0 0 0 0 0 0 0 0 127 0" result="hardAlpha"/>
<feOffset dy="1"/>
<feGaussianBlur stdDeviation="2"/>
<feComposite in2="hardAlpha" operator="out"/>
<feColorMatrix type="matrix" values="0 0 0 0 0.0969792 0 0 0 0 0.127894 0 0 0 0 0.2375 0 0 0 0.08 0"/>
<feBlend mode="normal" in2="BackgroundImageFix" result="effect1_dropShadow_2094_198"/>
<feBlend mode="normal" in="SourceGraphic" in2="effect1_dropShadow_2094_198" result="shape"/>
</filter>
<radialGradient id="paint0_radial_2094_198" cx="0" cy="0" r="1" gradientUnits="userSpaceOnUse" gradientTransform="translate(176.88 123.542) rotate(90) scale(31.8387 31.8464)">
<stop stop-color="#F6FAFD" stop-opacity="0.28"/>
<stop offset="1" stop-color="#F6FAFD"/>
</radialGradient>
<linearGradient id="paint1_linear_2094_198" x1="177" y1="0" x2="177" y2="108" gradientUnits="userSpaceOnUse">
<stop stop-color="#070B1B" stop-opacity="0"/>
<stop offset="1" stop-color="#070B1B"/>
</linearGradient>
</defs>
</svg>
