<svg width="1108" height="520" viewBox="0 0 1108 520" fill="none" xmlns="http://www.w3.org/2000/svg">
<rect width="1108" height="520" rx="8" fill="#B4B9C9"/>
<g opacity="0.26" filter="url(#filter0_d_2094_154)">
<rect x="522.058" y="197.558" width="63.8846" height="63.8846" rx="4.44231" fill="#F1F3F7" stroke="#6D758F" stroke-width="2.11538"/>
<mask id="mask0_2094_154" style="mask-type:alpha" maskUnits="userSpaceOnUse" x="523" y="199" width="62" height="62">
<rect x="523.311" y="199.043" width="61.343" height="61.3283" rx="2.75" fill="#E1E4ED"/>
</mask>
<g mask="url(#mask0_2094_154)">
<line x1="566.111" y1="196.5" x2="566.111" y2="265.316" stroke="#B4B9C9" stroke-width="1.375"/>
<line x1="577.534" y1="196.5" x2="577.534" y2="265.316" stroke="#B4B9C9" stroke-width="1.375"/>
<line x1="554.687" y1="196.5" x2="554.688" y2="265.316" stroke="#B4B9C9" stroke-width="1.375"/>
<line x1="531.841" y1="196.5" x2="531.841" y2="265.316" stroke="#B4B9C9" stroke-width="1.375"/>
<line x1="543.264" y1="196.5" x2="543.264" y2="265.316" stroke="#B4B9C9" stroke-width="1.375"/>
<line x1="519.592" y1="218.797" x2="588.408" y2="218.797" stroke="#B4B9C9" stroke-width="1.375"/>
<line x1="519.592" y1="207.374" x2="588.408" y2="207.374" stroke="#B4B9C9" stroke-width="1.375"/>
<line x1="519.592" y1="230.221" x2="588.408" y2="230.221" stroke="#B4B9C9" stroke-width="1.375"/>
<line x1="519.592" y1="253.067" x2="588.408" y2="253.067" stroke="#B4B9C9" stroke-width="1.375"/>
<line x1="519.592" y1="241.644" x2="588.408" y2="241.644" stroke="#B4B9C9" stroke-width="1.375"/>
<rect x="522.034" y="197.703" width="63.6927" height="63.6775" rx="4.125" fill="url(#paint0_radial_2094_154)"/>
<g filter="url(#filter1_d_2094_154)">
<rect x="539.891" y="218.759" width="28.0195" height="24.8076" fill="white"/>
<path d="M538.602 238.203L544.435 230.784C546.088 228.68 549.252 228.611 550.996 230.641L556.124 236.61M551.696 231.455C553.899 228.653 556.968 224.684 557.168 224.425C557.175 224.416 557.181 224.407 557.189 224.398C558.846 222.308 561.999 222.244 563.739 224.269L568.867 230.238M542.85 245.105H565.15C567.496 245.105 569.398 243.204 569.398 240.858V218.557C569.398 216.211 567.496 214.309 565.15 214.309H542.85C540.504 214.309 538.602 216.211 538.602 218.557V240.858C538.602 243.204 540.504 245.105 542.85 245.105Z" fill="white"/>
<path d="M538.602 238.203L544.435 230.784C546.088 228.68 549.252 228.611 550.996 230.641L556.124 236.61M551.696 231.455C553.899 228.653 556.968 224.684 557.168 224.425C557.175 224.416 557.181 224.407 557.189 224.398C558.846 222.308 561.999 222.244 563.739 224.269L568.867 230.238M542.85 245.105H565.15C567.496 245.105 569.398 243.204 569.398 240.858V218.557C569.398 216.211 567.496 214.309 565.15 214.309H542.85C540.504 214.309 538.602 216.211 538.602 218.557V240.858C538.602 243.204 540.504 245.105 542.85 245.105Z" stroke="#6D758F" stroke-width="1.69231" stroke-linecap="round" stroke-linejoin="round"/>
<path d="M565.847 244.251H542.666H542.12C540.601 244.251 539.37 243.02 539.37 241.501V239.43C539.37 238.8 539.586 238.19 539.982 237.7L545.648 230.697C546.727 229.363 548.752 229.333 549.871 230.634L555.491 237.174C555.699 237.416 556.027 237.52 556.337 237.441C556.945 237.287 557.176 236.545 556.764 236.073L552.756 231.471L558.302 224.333C559.361 222.971 561.398 222.909 562.538 224.204L568.597 231.088V241.501C568.597 243.02 567.366 244.251 565.847 244.251Z" fill="#E1E4ED"/>
</g>
</g>
</g>
<rect width="1108" height="260" transform="translate(0 260)" fill="url(#paint1_linear_2094_154)"/>
<g filter="url(#filter2_d_2094_154)">
<rect x="991" y="23" width="93" height="36" rx="3" fill="white"/>
<rect x="991.5" y="23.5" width="92" height="35" rx="2.5" stroke="#F1F3F7"/>
<path d="M1012.55 39.2898H1010.43C1010.37 38.9413 1010.26 38.6326 1010.09 38.3636C1009.93 38.0909 1009.73 37.8598 1009.49 37.6705C1009.24 37.4811 1008.97 37.339 1008.66 37.2443C1008.35 37.1458 1008.02 37.0966 1007.66 37.0966C1007.03 37.0966 1006.47 37.2557 1005.98 37.5739C1005.49 37.8883 1005.11 38.3504 1004.83 38.9602C1004.56 39.5663 1004.42 40.3068 1004.42 41.1818C1004.42 42.072 1004.56 42.822 1004.83 43.4318C1005.11 44.0379 1005.49 44.4962 1005.98 44.8068C1006.47 45.1136 1007.03 45.267 1007.66 45.267C1008 45.267 1008.33 45.2216 1008.63 45.1307C1008.94 45.036 1009.21 44.8977 1009.46 44.7159C1009.7 44.5341 1009.91 44.3106 1010.08 44.0455C1010.25 43.7803 1010.36 43.4773 1010.43 43.1364L1012.55 43.1477C1012.47 43.7008 1012.3 44.2197 1012.04 44.7045C1011.77 45.1894 1011.43 45.6174 1011.01 45.9886C1010.58 46.3561 1010.09 46.6439 1009.52 46.8523C1008.95 47.0568 1008.32 47.1591 1007.63 47.1591C1006.6 47.1591 1005.69 46.9223 1004.89 46.4489C1004.09 45.9754 1003.45 45.2917 1002.99 44.3977C1002.53 43.5038 1002.3 42.4318 1002.3 41.1818C1002.3 39.928 1002.53 38.8561 1003 37.9659C1003.46 37.072 1004.1 36.3883 1004.9 35.9148C1005.7 35.4413 1006.61 35.2045 1007.63 35.2045C1008.27 35.2045 1008.88 35.2955 1009.43 35.4773C1009.99 35.6591 1010.49 35.9261 1010.92 36.2784C1011.36 36.6269 1011.72 37.0549 1012 37.5625C1012.28 38.0663 1012.47 38.642 1012.55 39.2898ZM1016.9 47.1761C1016.35 47.1761 1015.85 47.0777 1015.41 46.8807C1014.97 46.6799 1014.62 46.3845 1014.36 45.9943C1014.11 45.6042 1013.98 45.1231 1013.98 44.5511C1013.98 44.0587 1014.07 43.6515 1014.26 43.3295C1014.44 43.0076 1014.69 42.75 1015 42.5568C1015.32 42.3636 1015.67 42.2178 1016.06 42.1193C1016.46 42.017 1016.87 41.9432 1017.3 41.8977C1017.81 41.8447 1018.22 41.7973 1018.54 41.7557C1018.86 41.7102 1019.09 41.642 1019.23 41.5511C1019.38 41.4564 1019.46 41.3106 1019.46 41.1136V41.0795C1019.46 40.6515 1019.33 40.3201 1019.07 40.0852C1018.82 39.8504 1018.46 39.733 1017.98 39.733C1017.47 39.733 1017.07 39.8428 1016.78 40.0625C1016.49 40.2822 1016.29 40.5417 1016.19 40.8409L1014.27 40.5682C1014.42 40.0379 1014.67 39.5947 1015.02 39.2386C1015.37 38.8788 1015.79 38.6098 1016.3 38.4318C1016.8 38.25 1017.36 38.1591 1017.97 38.1591C1018.39 38.1591 1018.81 38.2083 1019.22 38.3068C1019.64 38.4053 1020.02 38.5682 1020.36 38.7955C1020.71 39.0189 1020.99 39.3239 1021.19 39.7102C1021.41 40.0966 1021.51 40.5795 1021.51 41.1591V47H1019.53V45.8011H1019.47C1019.34 46.0436 1019.17 46.2708 1018.94 46.483C1018.71 46.6913 1018.43 46.8598 1018.09 46.9886C1017.75 47.1136 1017.36 47.1761 1016.9 47.1761ZM1017.44 45.6648C1017.85 45.6648 1018.21 45.5833 1018.51 45.4205C1018.82 45.2538 1019.05 45.0341 1019.21 44.7614C1019.38 44.4886 1019.46 44.1913 1019.46 43.8693V42.8409C1019.4 42.8939 1019.29 42.9432 1019.13 42.9886C1018.98 43.0341 1018.81 43.0739 1018.62 43.108C1018.43 43.142 1018.24 43.1723 1018.06 43.1989C1017.87 43.2254 1017.71 43.2481 1017.57 43.267C1017.27 43.3087 1016.99 43.3769 1016.75 43.4716C1016.51 43.5663 1016.32 43.6989 1016.18 43.8693C1016.04 44.036 1015.97 44.2519 1015.97 44.517C1015.97 44.8958 1016.1 45.1818 1016.38 45.375C1016.66 45.5682 1017.01 45.6648 1017.44 45.6648ZM1027.94 38.2727V39.8636H1022.92V38.2727H1027.94ZM1024.16 36.1818H1026.22V44.375C1026.22 44.6515 1026.26 44.8636 1026.34 45.0114C1026.43 45.1553 1026.54 45.2538 1026.68 45.3068C1026.82 45.3598 1026.98 45.3864 1027.15 45.3864C1027.28 45.3864 1027.39 45.3769 1027.5 45.358C1027.61 45.339 1027.69 45.322 1027.75 45.3068L1028.1 46.9148C1027.99 46.9527 1027.83 46.9943 1027.63 47.0398C1027.42 47.0852 1027.18 47.1117 1026.89 47.1193C1026.37 47.1345 1025.91 47.0568 1025.5 46.8864C1025.08 46.7121 1024.75 46.4432 1024.51 46.0795C1024.27 45.7159 1024.16 45.2614 1024.16 44.7159V36.1818ZM1033.43 47.1705C1032.55 47.1705 1031.8 46.9886 1031.16 46.625C1030.53 46.2576 1030.04 45.7386 1029.7 45.0682C1029.36 44.3939 1029.19 43.6004 1029.19 42.6875C1029.19 41.7898 1029.36 41.0019 1029.7 40.3239C1030.05 39.642 1030.53 39.1117 1031.14 38.733C1031.76 38.3504 1032.49 38.1591 1033.32 38.1591C1033.86 38.1591 1034.37 38.2462 1034.84 38.4205C1035.32 38.5909 1035.75 38.8561 1036.12 39.2159C1036.49 39.5758 1036.78 40.0341 1036.99 40.5909C1037.2 41.1439 1037.31 41.803 1037.31 42.5682V43.1989H1030.16V41.8125H1035.34C1035.33 41.4186 1035.25 41.0682 1035.08 40.7614C1034.92 40.4508 1034.68 40.2064 1034.38 40.0284C1034.09 39.8504 1033.74 39.7614 1033.35 39.7614C1032.93 39.7614 1032.56 39.8636 1032.24 40.0682C1031.92 40.2689 1031.67 40.5341 1031.5 40.8636C1031.32 41.1894 1031.23 41.5473 1031.23 41.9375V43.1477C1031.23 43.6553 1031.32 44.0909 1031.51 44.4545C1031.69 44.8144 1031.95 45.0909 1032.29 45.2841C1032.62 45.4735 1033.01 45.5682 1033.46 45.5682C1033.76 45.5682 1034.03 45.5265 1034.27 45.4432C1034.51 45.3561 1034.72 45.2292 1034.9 45.0625C1035.08 44.8958 1035.21 44.6894 1035.3 44.4432L1037.22 44.6591C1037.1 45.1667 1036.87 45.6098 1036.53 45.9886C1036.19 46.3636 1035.76 46.6553 1035.24 46.8636C1034.71 47.0682 1034.11 47.1705 1033.43 47.1705ZM1042.84 50.4545C1042.11 50.4545 1041.47 50.3542 1040.94 50.1534C1040.41 49.9564 1039.98 49.6913 1039.66 49.358C1039.34 49.0246 1039.12 48.6553 1038.99 48.25L1040.84 47.8011C1040.93 47.9716 1041.05 48.1402 1041.21 48.3068C1041.37 48.4773 1041.58 48.6174 1041.85 48.7273C1042.12 48.8409 1042.47 48.8977 1042.88 48.8977C1043.46 48.8977 1043.94 48.7557 1044.33 48.4716C1044.71 48.1913 1044.9 47.7292 1044.9 47.0852V45.4318H1044.8C1044.69 45.6439 1044.54 45.8617 1044.33 46.0852C1044.13 46.3087 1043.87 46.4962 1043.53 46.6477C1043.2 46.7992 1042.79 46.875 1042.29 46.875C1041.62 46.875 1041.01 46.7178 1040.46 46.4034C1039.92 46.0852 1039.49 45.6117 1039.17 44.983C1038.85 44.3504 1038.69 43.5587 1038.69 42.608C1038.69 41.6496 1038.85 40.8409 1039.17 40.1818C1039.49 39.5189 1039.92 39.017 1040.47 38.6761C1041.01 38.3314 1041.62 38.1591 1042.29 38.1591C1042.8 38.1591 1043.23 38.2462 1043.55 38.4205C1043.89 38.5909 1044.15 38.7973 1044.35 39.0398C1044.55 39.2784 1044.7 39.5038 1044.8 39.7159H1044.91V38.2727H1046.94V47.142C1046.94 47.8883 1046.76 48.5057 1046.41 48.9943C1046.05 49.483 1045.56 49.8485 1044.95 50.0909C1044.33 50.3333 1043.63 50.4545 1042.84 50.4545ZM1042.86 45.2614C1043.3 45.2614 1043.67 45.1553 1043.98 44.9432C1044.28 44.7311 1044.51 44.4261 1044.67 44.0284C1044.83 43.6307 1044.91 43.1534 1044.91 42.5966C1044.91 42.0473 1044.83 41.5663 1044.67 41.1534C1044.52 40.7405 1044.29 40.4205 1043.98 40.1932C1043.68 39.9621 1043.3 39.8466 1042.86 39.8466C1042.4 39.8466 1042.02 39.9659 1041.71 40.2045C1041.41 40.4432 1041.18 40.7708 1041.02 41.1875C1040.87 41.6004 1040.79 42.0701 1040.79 42.5966C1040.79 43.1307 1040.87 43.5985 1041.02 44C1041.18 44.3977 1041.41 44.7083 1041.72 44.9318C1042.03 45.1515 1042.41 45.2614 1042.86 45.2614ZM1052.86 47.1705C1052 47.1705 1051.26 46.983 1050.64 46.608C1050.01 46.233 1049.53 45.7083 1049.19 45.0341C1048.84 44.3598 1048.67 43.572 1048.67 42.6705C1048.67 41.7689 1048.84 40.9792 1049.19 40.3011C1049.53 39.6231 1050.01 39.0966 1050.64 38.7216C1051.26 38.3466 1052 38.1591 1052.86 38.1591C1053.71 38.1591 1054.45 38.3466 1055.07 38.7216C1055.7 39.0966 1056.18 39.6231 1056.52 40.3011C1056.87 40.9792 1057.04 41.7689 1057.04 42.6705C1057.04 43.572 1056.87 44.3598 1056.52 45.0341C1056.18 45.7083 1055.7 46.233 1055.07 46.608C1054.45 46.983 1053.71 47.1705 1052.86 47.1705ZM1052.87 45.5227C1053.33 45.5227 1053.72 45.3958 1054.03 45.142C1054.34 44.8845 1054.57 44.5398 1054.72 44.108C1054.87 43.6761 1054.95 43.1951 1054.95 42.6648C1054.95 42.1307 1054.87 41.6477 1054.72 41.2159C1054.57 40.7803 1054.34 40.4337 1054.03 40.1761C1053.72 39.9186 1053.33 39.7898 1052.87 39.7898C1052.39 39.7898 1052 39.9186 1051.69 40.1761C1051.37 40.4337 1051.14 40.7803 1050.99 41.2159C1050.83 41.6477 1050.76 42.1307 1050.76 42.6648C1050.76 43.1951 1050.83 43.6761 1050.99 44.108C1051.14 44.5398 1051.37 44.8845 1051.69 45.142C1052 45.3958 1052.39 45.5227 1052.87 45.5227ZM1058.78 47V38.2727H1060.78V39.7273H1060.87C1061.03 39.2235 1061.3 38.8352 1061.69 38.5625C1062.08 38.286 1062.52 38.1477 1063.02 38.1477C1063.14 38.1477 1063.26 38.1534 1063.4 38.1648C1063.55 38.1723 1063.67 38.1856 1063.76 38.2045V40.0966C1063.67 40.0663 1063.54 40.0398 1063.35 40.017C1063.16 39.9905 1062.98 39.9773 1062.81 39.9773C1062.43 39.9773 1062.09 40.0587 1061.79 40.2216C1061.5 40.3807 1061.27 40.6023 1061.1 40.8864C1060.93 41.1705 1060.84 41.4981 1060.84 41.8693V47H1058.78ZM1066.67 50.2727C1066.39 50.2727 1066.13 50.25 1065.89 50.2045C1065.66 50.1629 1065.47 50.1136 1065.33 50.0568L1065.81 48.4545C1066.11 48.5417 1066.37 48.5833 1066.61 48.5795C1066.84 48.5758 1067.05 48.5019 1067.23 48.358C1067.41 48.2178 1067.56 47.983 1067.69 47.6534L1067.86 47.1818L1064.7 38.2727H1066.88L1068.89 44.8636H1068.98L1071 38.2727H1073.19L1069.69 48.0568C1069.53 48.5189 1069.32 48.9148 1069.05 49.2443C1068.78 49.5777 1068.45 49.8314 1068.06 50.0057C1067.67 50.1837 1067.21 50.2727 1066.67 50.2727Z" fill="#6D758F"/>
</g>
<defs>
<filter id="filter0_d_2094_154" x="512.75" y="191" width="82.5" height="82.5" filterUnits="userSpaceOnUse" color-interpolation-filters="sRGB">
<feFlood flood-opacity="0" result="BackgroundImageFix"/>
<feColorMatrix in="SourceAlpha" type="matrix" values="0 0 0 0 0 0 0 0 0 0 0 0 0 0 0 0 0 0 127 0" result="hardAlpha"/>
<feOffset dy="2.75"/>
<feGaussianBlur stdDeviation="4.125"/>
<feComposite in2="hardAlpha" operator="out"/>
<feColorMatrix type="matrix" values="0 0 0 0 0.0969792 0 0 0 0 0.127894 0 0 0 0 0.2375 0 0 0 0.14 0"/>
<feBlend mode="normal" in2="BackgroundImageFix" result="effect1_dropShadow_2094_154"/>
<feBlend mode="normal" in="SourceGraphic" in2="effect1_dropShadow_2094_154" result="shape"/>
</filter>
<filter id="filter1_d_2094_154" x="532.256" y="209.338" width="43.4883" height="43.4883" filterUnits="userSpaceOnUse" color-interpolation-filters="sRGB">
<feFlood flood-opacity="0" result="BackgroundImageFix"/>
<feColorMatrix in="SourceAlpha" type="matrix" values="0 0 0 0 0 0 0 0 0 0 0 0 0 0 0 0 0 0 127 0" result="hardAlpha"/>
<feOffset dy="1.375"/>
<feGaussianBlur stdDeviation="2.75"/>
<feComposite in2="hardAlpha" operator="out"/>
<feColorMatrix type="matrix" values="0 0 0 0 0.0969792 0 0 0 0 0.127894 0 0 0 0 0.2375 0 0 0 0.08 0"/>
<feBlend mode="normal" in2="BackgroundImageFix" result="effect1_dropShadow_2094_154"/>
<feBlend mode="normal" in="SourceGraphic" in2="effect1_dropShadow_2094_154" result="shape"/>
</filter>
<filter id="filter2_d_2094_154" x="987" y="20" width="101" height="44" filterUnits="userSpaceOnUse" color-interpolation-filters="sRGB">
<feFlood flood-opacity="0" result="BackgroundImageFix"/>
<feColorMatrix in="SourceAlpha" type="matrix" values="0 0 0 0 0 0 0 0 0 0 0 0 0 0 0 0 0 0 127 0" result="hardAlpha"/>
<feOffset dy="1"/>
<feGaussianBlur stdDeviation="2"/>
<feComposite in2="hardAlpha" operator="out"/>
<feColorMatrix type="matrix" values="0 0 0 0 0.0969792 0 0 0 0 0.127894 0 0 0 0 0.2375 0 0 0 0.08 0"/>
<feBlend mode="normal" in2="BackgroundImageFix" result="effect1_dropShadow_2094_154"/>
<feBlend mode="normal" in="SourceGraphic" in2="effect1_dropShadow_2094_154" result="shape"/>
</filter>
<radialGradient id="paint0_radial_2094_154" cx="0" cy="0" r="1" gradientUnits="userSpaceOnUse" gradientTransform="translate(553.88 229.542) rotate(90) scale(31.8387 31.8464)">
<stop stop-color="#F6FAFD" stop-opacity="0.28"/>
<stop offset="1" stop-color="#F6FAFD"/>
</radialGradient>
<linearGradient id="paint1_linear_2094_154" x1="554" y1="0" x2="554" y2="260" gradientUnits="userSpaceOnUse">
<stop stop-color="#070B1B" stop-opacity="0"/>
<stop offset="0.518466" stop-color="#070B1B" stop-opacity="0.455965"/>
<stop offset="1" stop-color="#070B1B"/>
</linearGradient>
</defs>
</svg>
