<svg width="111" height="27" viewBox="0 0 111 27" fill="none" xmlns="http://www.w3.org/2000/svg">
<path fill-rule="evenodd" clip-rule="evenodd" d="M0.962891 6.16346L12.8347 0L24.8339 6.16346L12.8347 12.3424L0.962891 6.16346ZM72.2324 9.15634V9.00747C72.2324 6.97931 73.4255 6.32887 75.435 6.47293V2.76451C70.621 2.47104 68.3394 4.88285 68.3394 9.00747V9.15634H66.1623V12.8653H68.3394V24.092H72.2324V12.8653H76.7119V24.092H80.6049V12.8653H83.8075V9.15634H80.6049V9.00747C80.6049 6.97931 81.7772 6.32887 83.8075 6.47293V2.76451C78.9935 2.47104 76.7119 4.88285 76.7119 9.00747V9.15634H72.2324ZM45.0211 13.2175C46.2558 12.2357 47.0092 10.8323 47.0092 9.02881C47.0092 5.53329 44.1626 3.14336 40.5833 3.14336H32.2732V24.0493H41.2529C44.916 24.0493 47.8464 21.5788 47.8464 17.9984C47.8048 15.8374 46.7163 14.1827 45.0211 13.2175ZM40.6041 7.01719C41.9439 7.01719 42.8649 8.00379 42.8649 9.32229C42.8649 10.645 41.9018 11.6268 40.6041 11.6268H36.4389V7.01719H40.6041ZM41.2321 20.2181H36.4389V15.2926H41.2321C42.6557 15.2926 43.6813 16.3384 43.6813 17.7417C43.6813 19.167 42.6557 20.2181 41.2321 20.2181ZM59.9871 9.135V17.198C59.9871 19.7966 58.5641 20.9064 56.6591 20.9064C54.9005 20.9064 53.6657 19.8606 53.6657 17.8271V9.135H49.7722V18.3079C49.7722 22.2884 52.2635 24.4921 55.4869 24.4921C57.5172 24.4921 59.087 23.7345 59.9663 22.3952V24.0706H63.8594V9.135H59.9871ZM99.9458 18.1846H88.5596C89.1247 20.1541 90.7569 20.9918 92.7877 20.9918C94.3154 20.9918 95.5298 20.3617 96.1787 19.5031L99.3183 21.2853C97.916 23.3177 95.6552 24.4921 92.7456 24.4921C87.6803 24.4921 84.4777 21.0558 84.4777 16.5951C84.4777 12.129 87.7011 8.69212 92.4527 8.69212C96.9113 8.69212 100.093 12.193 100.093 16.5951C100.093 17.1767 100.03 17.6836 99.9458 18.1846ZM92.4527 12.193C90.3599 12.193 88.9358 13.3028 88.4961 15.2072H96.1995C95.7177 13.0521 94.0854 12.193 92.4527 12.193ZM105.723 11.7122V9.135H101.83V24.0706H105.723V16.9259C105.723 13.7825 108.278 12.8866 110.308 13.1369V8.84206C108.403 8.84206 106.498 9.67979 105.723 11.7122ZM12.8347 22.9127L4.73535 18.5106L0.962891 20.5543L12.8347 27L24.8339 20.5543L21.0188 18.5106L12.8347 22.9127ZM4.73535 11.5687L12.8347 15.5594L21.0188 11.5687L24.8339 13.4309L12.8347 19.2843L0.962891 13.4309L4.73535 11.5687Z" fill="#B4B9C9"/>
</svg>
