<svg width="133" height="27" viewBox="0 0 133 27" fill="none" xmlns="http://www.w3.org/2000/svg">
<path d="M16.285 5.39028L8.62344 10.2806L16.285 15.1708L8.62344 20.0611L0.961914 15.1301L8.62344 10.2398L0.961914 5.39028L8.62344 0.5L16.285 5.39028ZM8.58269 21.6097L16.2442 16.7194L23.9057 21.6097L16.2442 26.5L8.58269 21.6097ZM16.285 15.1301L23.9465 10.2398L16.285 5.39028L23.9057 0.5L31.5673 5.39028L23.9057 10.2806L31.5673 15.1708L23.9057 20.0611L16.285 15.1301Z" fill="#B4B9C9"/>
<path d="M37.5566 5.39099H43.7511C47.7041 5.39099 50.9643 7.67312 50.9643 12.8894V13.9897C50.9643 19.2468 47.9079 21.6104 43.8733 21.6104H37.5566V5.39099ZM41.0206 8.32516V18.6355H43.6696C45.911 18.6355 47.4188 17.1684 47.4188 13.9082V13.0524C47.4188 9.79224 45.8295 8.32516 43.5473 8.32516H41.0206ZM52.7982 8.48817H55.5694L56.0177 11.5446C56.5475 9.46622 57.8923 8.36591 60.3375 8.36591H61.1933V11.8706H59.7669C56.955 11.8706 56.2622 12.8487 56.2622 15.6198V21.6512H52.8389V8.48817H52.7982ZM61.8861 15.3346V14.9678C61.8861 10.5665 64.698 8.16215 68.5288 8.16215C72.441 8.16215 75.1715 10.5665 75.1715 14.9678V15.3346C75.1715 19.6543 72.5226 21.9772 68.5288 21.9772C64.2905 21.9364 61.8861 19.6543 61.8861 15.3346ZM71.6667 15.2938V14.9678C71.6667 12.5227 70.4442 11.0556 68.488 11.0556C66.5726 11.0556 65.3093 12.4004 65.3093 14.9678V15.2938C65.3093 17.6574 66.5319 19.0023 68.488 19.0023C70.4442 18.9615 71.6667 17.6574 71.6667 15.2938ZM76.9646 8.48817H79.8173L80.1433 10.9741C80.8361 9.30322 82.3032 8.16215 84.4631 8.16215C87.8049 8.16215 90.0055 10.5665 90.0055 15.0085V15.3753C90.0055 19.6951 87.5603 21.9772 84.4631 21.9772C82.3847 21.9772 80.9584 21.0399 80.2656 19.5321V26.1747H76.9239L76.9646 8.48817ZM86.5415 15.2938V15.0085C86.5415 12.4004 85.1967 11.0963 83.4036 11.0963C81.4882 11.0963 80.2248 12.5634 80.2248 15.0085V15.2531C80.2248 17.5759 81.4474 19.043 83.3628 19.043C85.3189 19.0023 86.5415 17.739 86.5415 15.2938ZM95.0589 19.206L94.7736 21.6104H91.8394V4.08691H95.1811V10.8111C95.9147 9.09945 97.3818 8.16215 99.4602 8.16215C102.598 8.2029 104.921 10.3628 104.921 14.7233V15.1308C104.921 19.4913 102.72 21.9772 99.3787 21.9772C97.178 21.9364 95.7517 20.9176 95.0589 19.206ZM101.416 15.1308V14.8048C101.416 12.4004 100.112 11.0556 98.2783 11.0556C96.4037 11.0556 95.0996 12.5634 95.0996 14.8455V15.1308C95.0996 17.5759 96.3629 19.0023 98.2376 19.0023C100.234 19.0023 101.416 17.739 101.416 15.1308ZM106.388 15.3346V14.9678C106.388 10.5665 109.2 8.16215 113.031 8.16215C116.943 8.16215 119.674 10.5665 119.674 14.9678V15.3346C119.674 19.6543 116.984 21.9772 113.031 21.9772C108.793 21.9364 106.388 19.6543 106.388 15.3346ZM116.21 15.2938V14.9678C116.21 12.5227 114.987 11.0556 113.031 11.0556C111.115 11.0556 109.852 12.4004 109.852 14.9678V15.2938C109.852 17.6574 111.075 19.0023 113.031 19.0023C114.987 18.9615 116.21 17.6574 116.21 15.2938ZM124.156 14.8048L119.551 8.48817H123.504L126.153 12.4411L128.843 8.48817H132.755L128.069 14.764L133 21.6104H129.128L126.112 17.2499L123.178 21.6104H119.144L124.156 14.8048Z" fill="#B4B9C9"/>
</svg>
