<svg width="125" height="29" viewBox="0 0 125 29" fill="none" xmlns="http://www.w3.org/2000/svg">
<path d="M35.6094 23.2321V4.56543H47.0001V8.17833H39.9248V13.1963H47.0001V16.759H39.9248V23.2321H35.6094Z" fill="#B4B9C9"/>
<path d="M49.8594 23.2315V10.3857H53.9239V13.0452C54.1246 12.1419 54.5762 11.3892 55.2286 10.8875C55.8809 10.3857 56.6336 10.1348 57.4365 10.1348C57.8379 10.1348 58.2393 10.1849 58.4902 10.2351V14.0487C57.9884 13.9986 57.587 13.9484 57.2859 13.9484C55.0279 13.9484 53.9239 15.4036 53.9239 18.2136V23.1814H49.8594V23.2315Z" fill="#B4B9C9"/>
<path d="M65.5166 23.5328C63.66 23.5328 62.1546 22.8804 61.1009 21.626C59.9969 20.3715 59.4951 18.7156 59.4951 16.7586C59.4951 14.8016 60.0471 13.1958 61.151 11.8912C62.255 10.6367 63.7604 9.98438 65.5668 9.98438C66.47 9.98438 67.2729 10.1851 67.9754 10.5865C68.6779 10.988 69.2299 11.4898 69.5812 12.1923V10.3356H73.6457V23.1815H69.5812V21.3751C69.2299 22.0274 68.6779 22.5292 67.9253 22.9306C67.2227 23.3822 66.4199 23.5328 65.5166 23.5328ZM66.6708 20.1708C67.6242 20.1708 68.427 19.8697 68.9288 19.2174C69.4306 18.565 69.7317 17.7622 69.7317 16.8087C69.7317 15.8553 69.4808 15.0525 68.9288 14.4001C68.3769 13.7478 67.6242 13.4467 66.6708 13.4467C65.7675 13.4467 65.0148 13.7478 64.4629 14.4001C63.9109 15.0023 63.6098 15.8553 63.6098 16.8087C63.6098 17.8123 63.9109 18.6152 64.4629 19.2675C65.0148 19.8697 65.7675 20.1708 66.6708 20.1708Z" fill="#B4B9C9"/>
<path d="M77.0078 23.2323V10.3864H81.0723V12.243C81.3734 11.5907 81.825 11.0387 82.4774 10.6373C83.1297 10.2359 83.8824 10.0352 84.7354 10.0352C86.7426 10.0352 88.0975 10.838 88.7498 12.3936C89.1011 11.6911 89.653 11.0889 90.3555 10.6875C91.1082 10.2359 91.9111 10.0352 92.8143 10.0352C95.8753 10.0352 97.3806 11.7914 97.3806 15.2538V23.2323H93.2659V16.0065C93.2659 14.3004 92.6136 13.4975 91.3591 13.4975C89.9039 13.4975 89.2014 14.5513 89.2014 16.6588V23.2825H85.1871V15.9563C85.1871 14.3004 84.5347 13.4473 83.2802 13.4473C82.5777 13.4473 82.0258 13.6982 81.6745 14.1499C81.3232 14.6015 81.1225 15.4545 81.1225 16.6086V23.2323H77.0078Z" fill="#B4B9C9"/>
<path d="M113.338 16.1068C113.338 16.6588 113.288 17.2108 113.238 17.9133H103.754C103.804 18.7663 104.055 19.4187 104.607 19.8703C105.159 20.3219 105.861 20.5728 106.764 20.5728C108.019 20.5728 108.822 20.1714 109.173 19.3685H113.187C112.987 20.623 112.284 21.6767 111.13 22.4294C109.926 23.2323 108.521 23.6337 106.815 23.6337C104.607 23.6337 102.901 23.0316 101.646 21.8273C100.392 20.623 99.7393 18.9671 99.7393 16.8094C99.7393 14.7018 100.392 13.0459 101.646 11.8416C102.901 10.6373 104.607 10.0352 106.664 10.0352C108.671 10.0352 110.277 10.5871 111.531 11.7412C112.686 12.8452 113.338 14.3004 113.338 16.1068ZM103.703 15.3542H109.273C109.273 14.5011 109.022 13.8488 108.571 13.3972C108.119 12.9456 107.467 12.6947 106.564 12.6947C105.711 12.6947 105.008 12.9456 104.506 13.4473C104.005 13.9491 103.754 14.6015 103.703 15.3542Z" fill="#B4B9C9"/>
<path d="M115.646 23.2315V10.3857H119.71V13.0452C119.911 12.1419 120.362 11.3892 121.015 10.8875C121.667 10.3857 122.42 10.1348 123.223 10.1348C123.624 10.1348 124.025 10.1849 124.276 10.2351V14.0487C123.775 13.9986 123.373 13.9484 123.072 13.9484C120.814 13.9484 119.71 15.4036 119.71 18.2136V23.1814H115.646V23.2315Z" fill="#B4B9C9"/>
<path d="M19.0505 0.5V9.83333H9.71716L0.383789 0.5H19.0505ZM0.383789 9.83333H9.71716L19.0505 19.1667H9.71716V28.5L0.383789 19.1667V9.83333Z" fill="#B4B9C9"/>
</svg>
