<svg width="99" height="29" viewBox="0 0 99 29" fill="none" xmlns="http://www.w3.org/2000/svg">
<path d="M11.1133 5.23926V13.0989H3.8926V5.23926H0.466797V24.0013H3.89353V16.3967H11.1124V24.0013H14.54V5.23926H11.1133ZM25.5084 17.9371C25.5084 18.6891 25.2096 19.4103 24.6779 19.9421C24.1461 20.4738 23.4249 20.7725 22.6729 20.7725C21.9208 20.7725 21.1996 20.4738 20.6678 19.9421C20.1361 19.4103 19.8373 18.6891 19.8373 17.9371V9.90031H16.5868V17.9371C16.5868 19.5496 17.2274 21.096 18.3676 22.2362C19.5078 23.3764 21.0543 24.017 22.6668 24.017C24.2793 24.017 25.8258 23.3764 26.966 22.2362C28.1063 21.096 28.7468 19.5496 28.7468 17.9371V9.90031H25.5084V17.9371ZM49.5938 10.7285C49.5938 9.0805 50.6835 8.55838 51.8771 8.55838C52.8397 8.55838 54.1102 9.29102 54.9421 10.1795L57.0705 7.66994C56.0077 6.23249 53.8524 5.23926 52.0876 5.23926C48.5607 5.23926 46.0103 7.30455 46.0103 10.7285C46.0103 17.0811 53.7745 15.0649 53.7745 18.6205C53.7745 19.7167 52.7099 20.6849 51.4913 20.6849C49.5688 20.6849 48.9455 19.7455 48.0627 18.7513L45.6997 21.208C47.2113 23.0627 49.0754 24.005 51.3076 24.005C54.6583 24.005 57.3533 21.9146 57.3533 18.6465C57.3533 11.5947 49.5882 13.7861 49.5882 10.7285M97.6274 21.0039C95.7068 21.0039 95.1605 20.173 95.1605 18.9006V13.2667H98.1467V10.4122H95.1605V6.64611L91.8646 8.12529V19.6008C91.8646 22.536 93.89 24.0152 96.6666 24.0152C97.1025 24.0226 97.5384 23.9873 97.9668 23.9113L98.7709 20.9511C98.4083 20.9761 97.9919 21.0012 97.6274 21.0012M37.8817 9.99398C36.2717 9.99398 35.1477 10.4614 34.0608 11.527V5.35147H30.8057V16.7982C30.8057 21.0828 33.9032 24.0189 37.3846 24.0189C41.2463 24.0189 44.6434 21.0308 44.6434 17.0078C44.6434 13.0349 41.5171 9.99676 37.8817 9.99676M37.8613 20.7424C37.3762 20.7424 36.8958 20.6469 36.4476 20.4612C35.9993 20.2755 35.5921 20.0034 35.249 19.6604C34.906 19.3173 34.6339 18.9101 34.4482 18.4619C34.2626 18.0137 34.167 17.5333 34.167 17.0482C34.167 16.563 34.2626 16.0826 34.4482 15.6344C34.6339 15.1862 34.906 14.779 35.249 14.4359C35.5921 14.0929 35.9993 13.8208 36.4476 13.6351C36.8958 13.4495 37.3762 13.3539 37.8613 13.3539C38.8411 13.3539 39.7807 13.7431 40.4736 14.4359C41.1664 15.1287 41.5556 16.0684 41.5556 17.0482C41.5556 18.0279 41.1664 18.9676 40.4736 19.6604C39.7807 20.3532 38.8411 20.7424 37.8613 20.7424ZM73.2341 16.8372C73.2341 12.8067 69.8444 9.82612 65.9753 9.82612C62.4948 9.82612 59.3964 12.7613 59.3964 17.0468V28.5H62.6516V22.3162C63.7366 23.3799 64.8625 23.8492 66.4706 23.8492C70.106 23.8492 73.2331 20.811 73.2331 16.8372M70.1514 16.7964C70.1514 17.7761 69.7622 18.7158 69.0694 19.4086C68.3766 20.1014 67.4369 20.4906 66.4571 20.4906C65.4773 20.4906 64.5377 20.1014 63.8449 19.4086C63.1521 18.7158 62.7628 17.7761 62.7628 16.7964C62.7628 15.8166 63.1521 14.8769 63.8449 14.1841C64.5377 13.4913 65.4773 13.1021 66.4571 13.1021C67.4369 13.1021 68.3766 13.4913 69.0694 14.1841C69.7622 14.8769 70.1514 15.8166 70.1514 16.7964Z" fill="#B4B9C9"/>
<path d="M83.7191 9.54389V6.27299C84.1514 6.07098 84.5174 5.75035 84.7745 5.34844C85.0316 4.94653 85.1692 4.47985 85.1714 4.00274V3.92763C85.1714 2.53654 84.0437 1.40884 82.6526 1.40884H82.5775C81.9095 1.40884 81.2688 1.67421 80.7964 2.14657C80.3241 2.61894 80.0587 3.2596 80.0587 3.92763V4.00274C80.0609 4.47985 80.1986 4.94653 80.4557 5.34844C80.7128 5.75035 81.0788 6.07098 81.511 6.27299V9.54389C80.2687 9.73411 79.0987 10.2492 78.1195 11.037L69.1488 4.05004C69.2128 3.81912 69.2462 3.58171 69.2499 3.34337C69.251 2.78203 69.0856 2.23297 68.7746 1.76564C68.4636 1.29832 68.021 0.933721 67.5028 0.717973C66.9845 0.502224 66.4139 0.445015 65.8632 0.553583C65.3124 0.662151 64.8063 0.931618 64.4087 1.3279C64.0111 1.72418 63.74 2.22947 63.6296 2.77986C63.5192 3.33025 63.5746 3.901 63.7886 4.41993C64.0027 4.93886 64.3658 5.38265 64.8322 5.69517C65.2985 6.00768 65.847 6.17488 66.4083 6.17561C66.8994 6.1733 67.3813 6.0422 67.8059 5.79539L76.6394 12.6692C75.8458 13.868 75.4318 15.278 75.4514 16.7156C75.4709 18.1531 75.923 19.5514 76.7488 20.7282L74.0621 23.4158C73.845 23.3463 73.6187 23.3094 73.3907 23.3063C72.9299 23.3067 72.4796 23.4436 72.0966 23.6999C71.7137 23.9561 71.4152 24.3201 71.2391 24.7459C71.0629 25.1716 71.0169 25.6401 71.1069 26.092C71.1969 26.5439 71.4188 26.959 71.7446 27.2848C72.0704 27.6106 72.4855 27.8325 72.9374 27.9225C73.3894 28.0125 73.8578 27.9665 74.2836 27.7903C74.7093 27.6142 75.0734 27.3158 75.3296 26.9328C75.5858 26.5498 75.7227 26.0995 75.7231 25.6387C75.7201 25.4107 75.6832 25.1844 75.6137 24.9673L78.2716 22.3085C79.1383 22.9757 80.1463 23.4357 81.2183 23.6533C82.2903 23.8708 83.3978 23.8401 84.4561 23.5635C85.5144 23.2869 86.4953 22.7717 87.3237 22.0574C88.1521 21.3431 88.806 20.4487 89.2354 19.4427C89.6647 18.4367 89.8581 17.3457 89.8007 16.2534C89.7432 15.1611 89.4366 14.0964 88.9041 13.1409C88.3717 12.1854 87.6276 11.3645 86.7288 10.741C85.8301 10.1175 84.8006 9.70803 83.7191 9.54389ZM82.6174 20.3016C82.1262 20.3151 81.6372 20.23 81.1795 20.0514C80.7217 19.8727 80.3044 19.6042 79.9521 19.2615C79.5999 18.9188 79.32 18.5091 79.1288 18.0564C78.9376 17.6037 78.8391 17.1173 78.8391 16.6259C78.8391 16.1345 78.9376 15.6481 79.1288 15.1954C79.32 14.7427 79.5999 14.3329 79.9521 13.9903C80.3044 13.6476 80.7217 13.379 81.1795 13.2004C81.6372 13.0217 82.1262 12.9367 82.6174 12.9502C83.5694 12.9835 84.4714 13.385 85.1333 14.0702C85.7952 14.7553 86.1653 15.6705 86.1658 16.6232C86.1663 17.5758 85.7971 18.4914 85.1359 19.1772C84.4747 19.863 83.5731 20.2654 82.6211 20.2997" fill="#B4B9C9"/>
</svg>
