<svg width="71" height="29" viewBox="0 0 71 29" fill="none" xmlns="http://www.w3.org/2000/svg">
<path fill-rule="evenodd" clip-rule="evenodd" d="M70.1932 14.984C70.1932 10.028 67.7926 6.11749 63.2043 6.11749C58.5967 6.11749 55.8089 10.028 55.8089 14.9453C55.8089 20.7724 59.1001 23.715 63.8239 23.715C66.1277 23.715 67.87 23.1923 69.1865 22.4566V18.5848C67.87 19.243 66.36 19.6495 64.4434 19.6495C62.5655 19.6495 60.9005 18.9913 60.6876 16.7069H70.1545C70.1545 16.4553 70.1932 15.4486 70.1932 14.984ZM60.6295 13.1449C60.6295 10.9573 61.9653 10.0474 63.185 10.0474C64.3659 10.0474 65.6243 10.9573 65.6243 13.1449H60.6295ZM48.336 6.11749C46.4388 6.11749 45.2191 7.00801 44.5415 7.6275L44.2898 6.42724H40.0307V29L44.8706 27.974L44.89 22.4953C45.5869 22.9987 46.613 23.715 48.3167 23.715C51.7821 23.715 54.9377 20.9272 54.9377 14.7904C54.9184 9.17624 51.724 6.11749 48.336 6.11749ZM47.1744 19.4559C46.0322 19.4559 45.3546 19.0494 44.89 18.5461L44.8706 11.3638C45.374 10.8024 46.0709 10.4152 47.1744 10.4152C48.9362 10.4152 50.1559 12.3899 50.1559 14.9259C50.1559 17.52 48.9556 19.4559 47.1744 19.4559ZM33.3709 4.9753L38.2302 3.92991V0L33.3709 1.02603V4.9753ZM33.3709 6.4466H38.2302V23.3858H33.3709V6.4466ZM28.1632 7.87917L27.8534 6.4466H23.6717V23.3858H28.5116V11.9059C29.6539 10.4152 31.5898 10.6862 32.19 10.8992V6.4466C31.5705 6.21429 29.3054 5.78838 28.1632 7.87917ZM18.4833 2.24566L13.7595 3.25234L13.7401 18.759C13.7401 21.6242 15.8891 23.7343 18.7543 23.7343C20.3418 23.7343 21.5034 23.4439 22.1423 23.0955V19.1656C21.5228 19.4172 18.4639 20.3077 18.4639 17.4426V10.5701H22.1423V6.4466H18.4639L18.4833 2.24566ZM5.39607 11.3638C5.39607 10.6088 6.01558 10.3184 7.04165 10.3184C8.51299 10.3184 10.3715 10.7637 11.8429 11.5574V7.00801C10.236 6.36916 8.64851 6.11749 7.04165 6.11749C3.11162 6.11749 0.498047 8.16956 0.498047 11.5961C0.498047 16.9393 7.85476 16.0875 7.85476 18.3912C7.85476 19.2817 7.08037 19.5721 5.99622 19.5721C4.38936 19.5721 2.33722 18.9139 0.711004 18.0234V22.6308C2.51146 23.4052 4.33128 23.7343 5.99622 23.7343C10.0231 23.7343 12.7915 21.7403 12.7915 18.275C12.7721 12.506 5.39607 13.532 5.39607 11.3638Z" fill="#B4B9C9"/>
</svg>
