<svg width="170" height="189" viewBox="0 0 170 189" fill="none" xmlns="http://www.w3.org/2000/svg">
<path d="M0 30C0 25.5817 3.58172 22 8 22H162C166.418 22 170 25.5817 170 30V181C170 185.418 166.418 189 162 189H8C3.58172 189 0 185.418 0 181V30Z" fill="#F1F3F7"/>
<rect x="53.0577" y="74.0577" width="63.8846" height="63.8846" rx="4.44231" fill="#F1F3F7" stroke="#6D758F" stroke-width="2.11538"/>
<mask id="mask0_500_29116" style="mask-type:alpha" maskUnits="userSpaceOnUse" x="54" y="75" width="62" height="62">
<rect x="54.312" y="75.543" width="61.343" height="61.3283" rx="2.75" fill="#E1E4ED"/>
</mask>
<g mask="url(#mask0_500_29116)">
<line x1="97.1104" y1="73" x2="97.1104" y2="141.816" stroke="#B4B9C9" stroke-width="1.375"/>
<line x1="108.532" y1="73" x2="108.532" y2="141.816" stroke="#B4B9C9" stroke-width="1.375"/>
<line x1="85.686" y1="73" x2="85.686" y2="141.816" stroke="#B4B9C9" stroke-width="1.375"/>
<line x1="62.8401" y1="73" x2="62.8401" y2="141.816" stroke="#B4B9C9" stroke-width="1.375"/>
<line x1="74.2644" y1="73" x2="74.2644" y2="141.816" stroke="#B4B9C9" stroke-width="1.375"/>
<line x1="50.5906" y1="95.2969" x2="119.407" y2="95.2969" stroke="#B4B9C9" stroke-width="1.375"/>
<line x1="50.5906" y1="83.875" x2="119.407" y2="83.875" stroke="#B4B9C9" stroke-width="1.375"/>
<line x1="50.5906" y1="106.721" x2="119.407" y2="106.721" stroke="#B4B9C9" stroke-width="1.375"/>
<line x1="50.5906" y1="129.566" x2="119.407" y2="129.566" stroke="#B4B9C9" stroke-width="1.375"/>
<line x1="50.5906" y1="118.143" x2="119.407" y2="118.143" stroke="#B4B9C9" stroke-width="1.375"/>
<rect x="53.0337" y="74.2031" width="63.6927" height="63.6775" rx="4.125" fill="url(#paint0_radial_500_29116)"/>
<g filter="url(#filter0_d_500_29116)">
<rect x="70.8928" y="95.2578" width="28.0195" height="24.8076" fill="white"/>
<path d="M69.6038 114.702L75.4363 107.283C77.0902 105.179 80.2539 105.11 81.9978 107.14L87.1256 113.109M82.6974 107.955C84.9002 105.153 87.9694 101.183 88.1693 100.924C88.1763 100.915 88.1831 100.906 88.1903 100.897C89.8473 98.807 93.0008 98.7429 94.7409 100.768L99.8688 106.738M73.8515 121.605H96.152C98.498 121.605 100.4 119.703 100.4 117.357V95.0563C100.4 92.7104 98.498 90.8086 96.152 90.8086H73.8515C71.5055 90.8086 69.6038 92.7104 69.6038 95.0563V117.357C69.6038 119.703 71.5055 121.605 73.8515 121.605Z" fill="white"/>
<path d="M69.6038 114.702L75.4363 107.283C77.0902 105.179 80.2539 105.11 81.9978 107.14L87.1256 113.109M82.6974 107.955C84.9002 105.153 87.9694 101.183 88.1693 100.924C88.1763 100.915 88.1831 100.906 88.1903 100.897C89.8473 98.807 93.0008 98.7429 94.7409 100.768L99.8688 106.738M73.8515 121.605H96.152C98.498 121.605 100.4 119.703 100.4 117.357V95.0563C100.4 92.7104 98.498 90.8086 96.152 90.8086H73.8515C71.5055 90.8086 69.6038 92.7104 69.6038 95.0563V117.357C69.6038 119.703 71.5055 121.605 73.8515 121.605Z" stroke="#6D758F" stroke-width="1.69231" stroke-linecap="round" stroke-linejoin="round"/>
<path d="M96.8489 120.75H73.6678H73.1218C71.603 120.75 70.3718 119.519 70.3718 118V115.928C70.3718 115.299 70.5879 114.688 70.9839 114.199L76.6497 107.196C77.7294 105.861 79.7543 105.831 80.8732 107.133L86.4932 113.672C86.7015 113.915 87.0291 114.018 87.3388 113.939C87.9466 113.785 88.178 113.044 87.7661 112.571L83.7579 107.969L89.3042 100.832C90.3629 99.4694 92.4001 99.4072 93.5401 100.702L99.5989 107.587V118C99.5989 119.519 98.3677 120.75 96.8489 120.75Z" fill="#E1E4ED"/>
</g>
</g>
<g filter="url(#filter1_d_500_29116)">
<rect x="65" y="3" width="40" height="38" rx="19" fill="white"/>
<rect x="65.5" y="3.5" width="39" height="37" rx="18.5" stroke="#F1F3F7"/>
<path d="M91.4533 18.3622H88.7971C88.7213 17.9266 88.5816 17.5407 88.378 17.2045C88.1744 16.8636 87.9211 16.5748 87.6181 16.3381C87.315 16.1013 86.9694 15.9238 86.5811 15.8054C86.1976 15.6823 85.7833 15.6207 85.3382 15.6207C84.5475 15.6207 83.8468 15.8196 83.236 16.2173C82.6252 16.6103 82.147 17.188 81.8013 17.9503C81.4557 18.7079 81.2828 19.6335 81.2828 20.7273C81.2828 21.84 81.4557 22.7775 81.8013 23.5398C82.1517 24.2973 82.6299 24.8703 83.236 25.2585C83.8468 25.642 84.5452 25.8338 85.3311 25.8338C85.7667 25.8338 86.1739 25.777 86.5527 25.6634C86.9363 25.545 87.2795 25.3722 87.5826 25.1449C87.8903 24.9176 88.1484 24.6383 88.3567 24.3068C88.5698 23.9754 88.7166 23.5966 88.7971 23.1705L91.4533 23.1847C91.3539 23.8759 91.1384 24.5246 90.807 25.1307C90.4803 25.7367 90.0518 26.2718 89.5215 26.7358C88.9912 27.1951 88.3709 27.5549 87.6607 27.8153C86.9505 28.071 86.1621 28.1989 85.2956 28.1989C84.0172 28.1989 82.8761 27.9029 81.8723 27.3111C80.8685 26.7192 80.0778 25.8646 79.5002 24.7472C78.9225 23.6297 78.6337 22.2898 78.6337 20.7273C78.6337 19.16 78.9249 17.8201 79.5073 16.7074C80.0897 15.59 80.8828 14.7353 81.8865 14.1435C82.8903 13.5516 84.0267 13.2557 85.2956 13.2557C86.1053 13.2557 86.8581 13.3693 87.5542 13.5966C88.2502 13.8239 88.8704 14.1577 89.415 14.598C89.9595 15.0336 90.4069 15.5687 90.7573 16.2031C91.1124 16.8329 91.3444 17.5526 91.4533 18.3622Z" fill="#6D758F"/>
</g>
<path d="M21.7059 166V158.727H22.5866V165.219H25.9672V166H21.7059ZM29.4331 166.114C28.9407 166.114 28.5087 165.996 28.137 165.762C27.7677 165.528 27.4788 165.2 27.2705 164.778C27.0645 164.357 26.9616 163.865 26.9616 163.301C26.9616 162.733 27.0645 162.237 27.2705 161.813C27.4788 161.389 27.7677 161.06 28.137 160.826C28.5087 160.592 28.9407 160.474 29.4331 160.474C29.9256 160.474 30.3564 160.592 30.7258 160.826C31.0974 161.06 31.3863 161.389 31.5922 161.813C31.8006 162.237 31.9047 162.733 31.9047 163.301C31.9047 163.865 31.8006 164.357 31.5922 164.778C31.3863 165.2 31.0974 165.528 30.7258 165.762C30.3564 165.996 29.9256 166.114 29.4331 166.114ZM29.4331 165.361C29.8072 165.361 30.115 165.265 30.3564 165.073C30.5979 164.881 30.7767 164.629 30.8927 164.317C31.0087 164.004 31.0667 163.666 31.0667 163.301C31.0667 162.937 31.0087 162.597 30.8927 162.282C30.7767 161.967 30.5979 161.713 30.3564 161.518C30.115 161.324 29.8072 161.227 29.4331 161.227C29.0591 161.227 28.7513 161.324 28.5099 161.518C28.2684 161.713 28.0896 161.967 27.9736 162.282C27.8576 162.597 27.7996 162.937 27.7996 163.301C27.7996 163.666 27.8576 164.004 27.9736 164.317C28.0896 164.629 28.2684 164.881 28.5099 165.073C28.7513 165.265 29.0591 165.361 29.4331 165.361ZM33.184 166V160.545H33.9937V161.369H34.0505C34.1499 161.099 34.3299 160.88 34.5903 160.712C34.8507 160.544 35.1443 160.46 35.471 160.46C35.5325 160.46 35.6095 160.461 35.7018 160.464C35.7941 160.466 35.864 160.47 35.9113 160.474V161.327C35.8829 161.32 35.8178 161.309 35.716 161.295C35.6166 161.278 35.5112 161.27 35.3999 161.27C35.1348 161.27 34.8981 161.326 34.6897 161.437C34.4838 161.546 34.3204 161.697 34.1997 161.891C34.0813 162.083 34.0221 162.302 34.0221 162.548V166H33.184ZM39.0257 166.114C38.5001 166.114 38.0467 165.998 37.6656 165.766C37.2868 165.531 36.9944 165.205 36.7884 164.786C36.5848 164.364 36.483 163.874 36.483 163.315C36.483 162.757 36.5848 162.264 36.7884 161.838C36.9944 161.41 37.2809 161.076 37.6478 160.837C38.0171 160.595 38.448 160.474 38.9404 160.474C39.2245 160.474 39.5051 160.522 39.782 160.616C40.059 160.711 40.3112 160.865 40.5384 161.078C40.7657 161.289 40.9468 161.568 41.0818 161.916C41.2167 162.264 41.2842 162.693 41.2842 163.202V163.557H37.0796V162.832H40.4319C40.4319 162.525 40.3704 162.25 40.2472 162.009C40.1265 161.767 39.9537 161.576 39.7288 161.437C39.5062 161.297 39.2435 161.227 38.9404 161.227C38.6066 161.227 38.3178 161.31 38.074 161.476C37.8325 161.639 37.6466 161.852 37.5164 162.115C37.3862 162.378 37.3211 162.66 37.3211 162.96V163.443C37.3211 163.855 37.3921 164.204 37.5342 164.491C37.6786 164.775 37.8786 164.991 38.1343 165.141C38.39 165.287 38.6871 165.361 39.0257 165.361C39.2458 165.361 39.4447 165.33 39.6222 165.268C39.8022 165.205 39.9572 165.11 40.0874 164.984C40.2177 164.857 40.3183 164.698 40.3893 164.509L41.199 164.736C41.1137 165.01 40.9705 165.252 40.7693 165.46C40.568 165.666 40.3195 165.827 40.0235 165.943C39.7276 166.057 39.395 166.114 39.0257 166.114ZM42.559 166V160.545H43.3687V161.398H43.4397C43.5534 161.107 43.7368 160.88 43.9901 160.719C44.2435 160.556 44.5477 160.474 44.9028 160.474C45.2626 160.474 45.5621 160.556 45.8012 160.719C46.0427 160.88 46.2309 161.107 46.3659 161.398H46.4227C46.5624 161.116 46.7719 160.892 47.0512 160.727C47.3306 160.558 47.6656 160.474 48.0562 160.474C48.5439 160.474 48.9428 160.627 49.2529 160.933C49.5631 161.236 49.7181 161.708 49.7181 162.349V166H48.8801V162.349C48.8801 161.947 48.77 161.659 48.5498 161.487C48.3296 161.314 48.0704 161.227 47.7721 161.227C47.3886 161.227 47.0915 161.343 46.8808 161.575C46.6701 161.805 46.5647 162.096 46.5647 162.449V166H45.7124V162.264C45.7124 161.954 45.6118 161.704 45.4106 161.515C45.2094 161.323 44.9501 161.227 44.6329 161.227C44.4151 161.227 44.2115 161.285 44.0221 161.401C43.8351 161.517 43.6836 161.678 43.5676 161.884C43.4539 162.088 43.3971 162.323 43.3971 162.591V166H42.559ZM54.0629 166V160.545H54.901V166H54.0629ZM54.4891 159.636C54.3257 159.636 54.1849 159.581 54.0665 159.469C53.9505 159.358 53.8925 159.224 53.8925 159.068C53.8925 158.912 53.9505 158.778 54.0665 158.667C54.1849 158.556 54.3257 158.5 54.4891 158.5C54.6524 158.5 54.7921 158.556 54.9081 158.667C55.0265 158.778 55.0857 158.912 55.0857 159.068C55.0857 159.224 55.0265 159.358 54.9081 159.469C54.7921 159.581 54.6524 159.636 54.4891 159.636ZM56.436 168.045V160.545H57.2456V161.412H57.3451C57.4066 161.317 57.4919 161.196 57.6008 161.05C57.712 160.901 57.8706 160.768 58.0766 160.652C58.2849 160.534 58.5667 160.474 58.9218 160.474C59.3811 160.474 59.7859 160.589 60.1363 160.819C60.4867 161.049 60.7601 161.374 60.9566 161.795C61.1531 162.217 61.2513 162.714 61.2513 163.287C61.2513 163.865 61.1531 164.365 60.9566 164.789C60.7601 165.21 60.4878 165.537 60.1398 165.769C59.7918 165.999 59.3905 166.114 58.936 166.114C58.5856 166.114 58.3051 166.056 58.0944 165.94C57.8837 165.821 57.7215 165.687 57.6079 165.538C57.4942 165.387 57.4066 165.261 57.3451 165.162H57.2741V168.045H56.436ZM57.2599 163.273C57.2599 163.685 57.3202 164.048 57.441 164.363C57.5617 164.675 57.7381 164.92 57.9701 165.098C58.2021 165.273 58.4862 165.361 58.8224 165.361C59.1727 165.361 59.4651 165.268 59.6995 165.084C59.9362 164.897 60.1138 164.646 60.2322 164.331C60.3529 164.014 60.4133 163.661 60.4133 163.273C60.4133 162.889 60.3541 162.544 60.2357 162.236C60.1197 161.926 59.9433 161.681 59.7066 161.501C59.4722 161.318 59.1775 161.227 58.8224 161.227C58.4814 161.227 58.195 161.314 57.963 161.487C57.731 161.657 57.5558 161.896 57.4374 162.204C57.319 162.509 57.2599 162.866 57.2599 163.273ZM66.3934 161.767L65.6405 161.98C65.5932 161.855 65.5233 161.733 65.431 161.614C65.3411 161.494 65.218 161.394 65.0617 161.316C64.9055 161.238 64.7054 161.199 64.4616 161.199C64.1278 161.199 63.8496 161.276 63.627 161.43C63.4069 161.581 63.2968 161.774 63.2968 162.009C63.2968 162.217 63.3725 162.381 63.5241 162.502C63.6756 162.623 63.9123 162.723 64.2343 162.804L65.0439 163.003C65.5316 163.121 65.895 163.302 66.1341 163.546C66.3733 163.788 66.4928 164.099 66.4928 164.48C66.4928 164.793 66.4028 165.072 66.2229 165.318C66.0454 165.564 65.7968 165.759 65.4772 165.901C65.1576 166.043 64.7859 166.114 64.3621 166.114C63.8058 166.114 63.3453 165.993 62.9807 165.751C62.6162 165.51 62.3853 165.157 62.2883 164.693L63.0837 164.494C63.1595 164.788 63.3027 165.008 63.5134 165.155C63.7265 165.302 64.0046 165.375 64.3479 165.375C64.7385 165.375 65.0487 165.292 65.2783 165.126C65.5103 164.958 65.6263 164.757 65.6263 164.523C65.6263 164.333 65.56 164.175 65.4275 164.047C65.2949 163.917 65.0913 163.82 64.8167 163.756L63.9076 163.543C63.4081 163.424 63.0411 163.241 62.8067 162.992C62.5747 162.741 62.4587 162.428 62.4587 162.051C62.4587 161.743 62.5451 161.471 62.718 161.234C62.8931 160.998 63.1311 160.812 63.4317 160.677C63.7348 160.542 64.078 160.474 64.4616 160.474C65.0013 160.474 65.4251 160.593 65.7329 160.83C66.043 161.066 66.2632 161.379 66.3934 161.767ZM71.1919 163.77V160.545H72.0299V166H71.1919V165.077H71.135C71.0072 165.354 70.8083 165.589 70.5384 165.783C70.2686 165.975 69.9276 166.071 69.5157 166.071C69.1748 166.071 68.8718 165.996 68.6066 165.847C68.3415 165.696 68.1331 165.469 67.9816 165.165C67.8301 164.86 67.7544 164.475 67.7544 164.011V160.545H68.5924V163.955C68.5924 164.352 68.7037 164.67 68.9262 164.906C69.1511 165.143 69.4376 165.261 69.7856 165.261C69.9939 165.261 70.2058 165.208 70.4213 165.102C70.6391 164.995 70.8213 164.832 70.9681 164.612C71.1173 164.391 71.1919 164.111 71.1919 163.77ZM73.5649 166V160.545H74.3746V161.398H74.4456C74.5592 161.107 74.7427 160.88 74.996 160.719C75.2493 160.556 75.5535 160.474 75.9086 160.474C76.2685 160.474 76.568 160.556 76.8071 160.719C77.0486 160.88 77.2368 161.107 77.3717 161.398H77.4285C77.5682 161.116 77.7777 160.892 78.0571 160.727C78.3364 160.558 78.6714 160.474 79.0621 160.474C79.5497 160.474 79.9487 160.627 80.2588 160.933C80.5689 161.236 80.724 161.708 80.724 162.349V166H79.8859V162.349C79.8859 161.947 79.7758 161.659 79.5557 161.487C79.3355 161.314 79.0763 161.227 78.778 161.227C78.3944 161.227 78.0973 161.343 77.8866 161.575C77.6759 161.805 77.5706 162.096 77.5706 162.449V166H76.7183V162.264C76.7183 161.954 76.6177 161.704 76.4165 161.515C76.2152 161.323 75.956 161.227 75.6388 161.227C75.421 161.227 75.2174 161.285 75.028 161.401C74.8409 161.517 74.6894 161.678 74.5734 161.884C74.4598 162.088 74.403 162.323 74.403 162.591V166H73.5649ZM87.1285 166.114C86.6739 166.114 86.2726 165.999 85.9246 165.769C85.5766 165.537 85.3044 165.21 85.1079 164.789C84.9114 164.365 84.8131 163.865 84.8131 163.287C84.8131 162.714 84.9114 162.217 85.1079 161.795C85.3044 161.374 85.5778 161.049 85.9282 160.819C86.2786 160.589 86.6834 160.474 87.1427 160.474C87.4978 160.474 87.7783 160.534 87.9843 160.652C88.1926 160.768 88.3512 160.901 88.4601 161.05C88.5714 161.196 88.6578 161.317 88.7194 161.412H88.7904V158.727H89.6285V166H88.8188V165.162H88.7194C88.6578 165.261 88.5702 165.387 88.4566 165.538C88.343 165.687 88.1808 165.821 87.9701 165.94C87.7594 166.056 87.4788 166.114 87.1285 166.114ZM87.2421 165.361C87.5783 165.361 87.8624 165.273 88.0944 165.098C88.3264 164.92 88.5028 164.675 88.6235 164.363C88.7442 164.048 88.8046 163.685 88.8046 163.273C88.8046 162.866 88.7454 162.509 88.627 162.204C88.5087 161.896 88.3335 161.657 88.1015 161.487C87.8695 161.314 87.583 161.227 87.2421 161.227C86.887 161.227 86.5911 161.318 86.3543 161.501C86.1199 161.681 85.9436 161.926 85.8252 162.236C85.7092 162.544 85.6512 162.889 85.6512 163.273C85.6512 163.661 85.7104 164.014 85.8287 164.331C85.9495 164.646 86.127 164.897 86.3614 165.084C86.5982 165.268 86.8917 165.361 87.2421 165.361ZM93.4956 166.114C93.0032 166.114 92.5712 165.996 92.1995 165.762C91.8302 165.528 91.5413 165.2 91.333 164.778C91.127 164.357 91.0241 163.865 91.0241 163.301C91.0241 162.733 91.127 162.237 91.333 161.813C91.5413 161.389 91.8302 161.06 92.1995 160.826C92.5712 160.592 93.0032 160.474 93.4956 160.474C93.9881 160.474 94.4189 160.592 94.7883 160.826C95.1599 161.06 95.4488 161.389 95.6547 161.813C95.8631 162.237 95.9672 162.733 95.9672 163.301C95.9672 163.865 95.8631 164.357 95.6547 164.778C95.4488 165.2 95.1599 165.528 94.7883 165.762C94.4189 165.996 93.9881 166.114 93.4956 166.114ZM93.4956 165.361C93.8697 165.361 94.1775 165.265 94.4189 165.073C94.6604 164.881 94.8392 164.629 94.9552 164.317C95.0712 164.004 95.1292 163.666 95.1292 163.301C95.1292 162.937 95.0712 162.597 94.9552 162.282C94.8392 161.967 94.6604 161.713 94.4189 161.518C94.1775 161.324 93.8697 161.227 93.4956 161.227C93.1216 161.227 92.8138 161.324 92.5724 161.518C92.3309 161.713 92.1521 161.967 92.0361 162.282C91.9201 162.597 91.8621 162.937 91.8621 163.301C91.8621 163.666 91.9201 164.004 92.0361 164.317C92.1521 164.629 92.3309 164.881 92.5724 165.073C92.8138 165.265 93.1216 165.361 93.4956 165.361ZM98.0846 158.727V166H97.2465V158.727H98.0846ZM101.835 166.114C101.343 166.114 100.911 165.996 100.539 165.762C100.17 165.528 99.8812 165.2 99.6729 164.778C99.4669 164.357 99.3639 163.865 99.3639 163.301C99.3639 162.733 99.4669 162.237 99.6729 161.813C99.8812 161.389 100.17 161.06 100.539 160.826C100.911 160.592 101.343 160.474 101.835 160.474C102.328 160.474 102.759 160.592 103.128 160.826C103.5 161.06 103.789 161.389 103.995 161.813C104.203 162.237 104.307 162.733 104.307 163.301C104.307 163.865 104.203 164.357 103.995 164.778C103.789 165.2 103.5 165.528 103.128 165.762C102.759 165.996 102.328 166.114 101.835 166.114ZM101.835 165.361C102.21 165.361 102.517 165.265 102.759 165.073C103 164.881 103.179 164.629 103.295 164.317C103.411 164.004 103.469 163.666 103.469 163.301C103.469 162.937 103.411 162.597 103.295 162.282C103.179 161.967 103 161.713 102.759 161.518C102.517 161.324 102.21 161.227 101.835 161.227C101.461 161.227 101.154 161.324 100.912 161.518C100.671 161.713 100.492 161.967 100.376 162.282C100.26 162.597 100.202 162.937 100.202 163.301C100.202 163.666 100.26 164.004 100.376 164.317C100.492 164.629 100.671 164.881 100.912 165.073C101.154 165.265 101.461 165.361 101.835 165.361ZM105.586 166V160.545H106.396V161.369H106.453C106.552 161.099 106.732 160.88 106.993 160.712C107.253 160.544 107.547 160.46 107.873 160.46C107.935 160.46 108.012 160.461 108.104 160.464C108.196 160.466 108.266 160.47 108.314 160.474V161.327C108.285 161.32 108.22 161.309 108.118 161.295C108.019 161.278 107.914 161.27 107.802 161.27C107.537 161.27 107.3 161.326 107.092 161.437C106.886 161.546 106.723 161.697 106.602 161.891C106.484 162.083 106.424 162.302 106.424 162.548V166H105.586ZM115.983 161.767L115.23 161.98C115.183 161.855 115.113 161.733 115.021 161.614C114.931 161.494 114.808 161.394 114.652 161.316C114.495 161.238 114.295 161.199 114.051 161.199C113.718 161.199 113.439 161.276 113.217 161.43C112.997 161.581 112.887 161.774 112.887 162.009C112.887 162.217 112.962 162.381 113.114 162.502C113.265 162.623 113.502 162.723 113.824 162.804L114.634 163.003C115.121 163.121 115.485 163.302 115.724 163.546C115.963 163.788 116.083 164.099 116.083 164.48C116.083 164.793 115.993 165.072 115.813 165.318C115.635 165.564 115.387 165.759 115.067 165.901C114.747 166.043 114.376 166.114 113.952 166.114C113.396 166.114 112.935 165.993 112.571 165.751C112.206 165.51 111.975 165.157 111.878 164.693L112.674 164.494C112.749 164.788 112.893 165.008 113.103 165.155C113.316 165.302 113.594 165.375 113.938 165.375C114.328 165.375 114.639 165.292 114.868 165.126C115.1 164.958 115.216 164.757 115.216 164.523C115.216 164.333 115.15 164.175 115.017 164.047C114.885 163.917 114.681 163.82 114.407 163.756L113.497 163.543C112.998 163.424 112.631 163.241 112.397 162.992C112.165 162.741 112.049 162.428 112.049 162.051C112.049 161.743 112.135 161.471 112.308 161.234C112.483 160.998 112.721 160.812 113.022 160.677C113.325 160.542 113.668 160.474 114.051 160.474C114.591 160.474 115.015 160.593 115.323 160.83C115.633 161.066 115.853 161.379 115.983 161.767ZM117.344 166V160.545H118.182V166H117.344ZM117.77 159.636C117.607 159.636 117.466 159.581 117.348 159.469C117.232 159.358 117.174 159.224 117.174 159.068C117.174 158.912 117.232 158.778 117.348 158.667C117.466 158.556 117.607 158.5 117.77 158.5C117.934 158.5 118.073 158.556 118.189 158.667C118.308 158.778 118.367 158.912 118.367 159.068C118.367 159.224 118.308 159.358 118.189 159.469C118.073 159.581 117.934 159.636 117.77 159.636ZM122.089 160.545V161.256H119.263V160.545H122.089ZM120.087 159.239H120.925V164.438C120.925 164.674 120.959 164.852 121.028 164.97C121.099 165.086 121.189 165.164 121.297 165.205C121.409 165.242 121.526 165.261 121.649 165.261C121.741 165.261 121.817 165.257 121.876 165.247C121.936 165.235 121.983 165.226 122.018 165.219L122.189 165.972C122.132 165.993 122.053 166.014 121.951 166.036C121.849 166.059 121.72 166.071 121.564 166.071C121.327 166.071 121.095 166.02 120.868 165.918C120.643 165.817 120.456 165.661 120.307 165.453C120.16 165.245 120.087 164.982 120.087 164.665V159.239ZM127.768 166.128C127.422 166.128 127.108 166.063 126.827 165.933C126.545 165.8 126.321 165.609 126.155 165.361C125.99 165.11 125.907 164.807 125.907 164.452C125.907 164.139 125.968 163.886 126.092 163.692C126.215 163.495 126.379 163.341 126.585 163.23C126.791 163.119 127.018 163.036 127.267 162.982C127.518 162.925 127.77 162.88 128.023 162.847C128.355 162.804 128.623 162.772 128.829 162.751C129.038 162.727 129.189 162.688 129.284 162.634C129.381 162.579 129.43 162.484 129.43 162.349V162.321C129.43 161.971 129.334 161.698 129.142 161.504C128.953 161.31 128.665 161.213 128.279 161.213C127.879 161.213 127.565 161.301 127.338 161.476C127.111 161.651 126.951 161.838 126.859 162.037L126.063 161.753C126.205 161.421 126.395 161.163 126.631 160.979C126.87 160.792 127.131 160.661 127.413 160.588C127.697 160.512 127.976 160.474 128.251 160.474C128.426 160.474 128.627 160.496 128.854 160.538C129.084 160.579 129.305 160.663 129.518 160.79C129.734 160.918 129.913 161.111 130.055 161.369C130.197 161.627 130.268 161.973 130.268 162.406V166H129.43V165.261H129.387C129.33 165.38 129.235 165.506 129.103 165.641C128.97 165.776 128.794 165.891 128.574 165.986C128.354 166.08 128.085 166.128 127.768 166.128ZM127.896 165.375C128.227 165.375 128.506 165.31 128.734 165.18C128.963 165.049 129.136 164.881 129.252 164.675C129.37 164.469 129.43 164.253 129.43 164.026V163.259C129.394 163.301 129.316 163.34 129.195 163.376C129.077 163.409 128.94 163.438 128.783 163.464C128.629 163.488 128.479 163.509 128.332 163.528C128.188 163.545 128.071 163.559 127.981 163.571C127.763 163.599 127.559 163.646 127.37 163.71C127.183 163.771 127.031 163.865 126.915 163.99C126.802 164.113 126.745 164.281 126.745 164.494C126.745 164.786 126.853 165.006 127.068 165.155C127.286 165.302 127.562 165.375 127.896 165.375ZM131.797 166V160.545H132.607V161.398H132.678C132.792 161.107 132.975 160.88 133.228 160.719C133.482 160.556 133.786 160.474 134.141 160.474C134.501 160.474 134.8 160.556 135.04 160.719C135.281 160.88 135.469 161.107 135.604 161.398H135.661C135.801 161.116 136.01 160.892 136.29 160.727C136.569 160.558 136.904 160.474 137.294 160.474C137.782 160.474 138.181 160.627 138.491 160.933C138.801 161.236 138.956 161.708 138.956 162.349V166H138.118V162.349C138.118 161.947 138.008 161.659 137.788 161.487C137.568 161.314 137.309 161.227 137.01 161.227C136.627 161.227 136.33 161.343 136.119 161.575C135.908 161.805 135.803 162.096 135.803 162.449V166H134.951V162.264C134.951 161.954 134.85 161.704 134.649 161.515C134.448 161.323 134.188 161.227 133.871 161.227C133.653 161.227 133.45 161.285 133.26 161.401C133.073 161.517 132.922 161.678 132.806 161.884C132.692 162.088 132.635 162.323 132.635 162.591V166H131.797ZM142.776 166.114C142.25 166.114 141.797 165.998 141.416 165.766C141.037 165.531 140.744 165.205 140.538 164.786C140.335 164.364 140.233 163.874 140.233 163.315C140.233 162.757 140.335 162.264 140.538 161.838C140.744 161.41 141.031 161.076 141.398 160.837C141.767 160.595 142.198 160.474 142.69 160.474C142.975 160.474 143.255 160.522 143.532 160.616C143.809 160.711 144.061 160.865 144.288 161.078C144.516 161.289 144.697 161.568 144.832 161.916C144.967 162.264 145.034 162.693 145.034 163.202V163.557H140.83V162.832H144.182C144.182 162.525 144.12 162.25 143.997 162.009C143.877 161.767 143.704 161.576 143.479 161.437C143.256 161.297 142.993 161.227 142.69 161.227C142.357 161.227 142.068 161.31 141.824 161.476C141.582 161.639 141.397 161.852 141.266 162.115C141.136 162.378 141.071 162.66 141.071 162.96V163.443C141.071 163.855 141.142 164.204 141.284 164.491C141.429 164.775 141.629 164.991 141.884 165.141C142.14 165.287 142.437 165.361 142.776 165.361C142.996 165.361 143.195 165.33 143.372 165.268C143.552 165.205 143.707 165.11 143.837 164.984C143.968 164.857 144.068 164.698 144.139 164.509L144.949 164.736C144.864 165.01 144.72 165.252 144.519 165.46C144.318 165.666 144.069 165.827 143.774 165.943C143.478 166.057 143.145 166.114 142.776 166.114ZM148.681 160.545V161.256H145.854V160.545H148.681ZM146.678 159.239H147.516V164.438C147.516 164.674 147.551 164.852 147.619 164.97C147.69 165.086 147.78 165.164 147.889 165.205C148.001 165.242 148.118 165.261 148.241 165.261C148.333 165.261 148.409 165.257 148.468 165.247C148.527 165.235 148.575 165.226 148.61 165.219L148.781 165.972C148.724 165.993 148.645 166.014 148.543 166.036C148.441 166.059 148.312 166.071 148.156 166.071C147.919 166.071 147.687 166.02 147.46 165.918C147.235 165.817 147.048 165.661 146.899 165.453C146.752 165.245 146.678 164.982 146.678 164.665V159.239Z" fill="#6D758F"/>
<defs>
<filter id="filter0_d_500_29116" x="64.7576" y="86.9629" width="40.4883" height="40.4883" filterUnits="userSpaceOnUse" color-interpolation-filters="sRGB">
<feFlood flood-opacity="0" result="BackgroundImageFix"/>
<feColorMatrix in="SourceAlpha" type="matrix" values="0 0 0 0 0 0 0 0 0 0 0 0 0 0 0 0 0 0 127 0" result="hardAlpha"/>
<feOffset dy="1"/>
<feGaussianBlur stdDeviation="2"/>
<feComposite in2="hardAlpha" operator="out"/>
<feColorMatrix type="matrix" values="0 0 0 0 0.0969792 0 0 0 0 0.127894 0 0 0 0 0.2375 0 0 0 0.08 0"/>
<feBlend mode="normal" in2="BackgroundImageFix" result="effect1_dropShadow_500_29116"/>
<feBlend mode="normal" in="SourceGraphic" in2="effect1_dropShadow_500_29116" result="shape"/>
</filter>
<filter id="filter1_d_500_29116" x="61" y="0" width="48" height="46" filterUnits="userSpaceOnUse" color-interpolation-filters="sRGB">
<feFlood flood-opacity="0" result="BackgroundImageFix"/>
<feColorMatrix in="SourceAlpha" type="matrix" values="0 0 0 0 0 0 0 0 0 0 0 0 0 0 0 0 0 0 127 0" result="hardAlpha"/>
<feOffset dy="1"/>
<feGaussianBlur stdDeviation="2"/>
<feComposite in2="hardAlpha" operator="out"/>
<feColorMatrix type="matrix" values="0 0 0 0 0.0969792 0 0 0 0 0.127894 0 0 0 0 0.2375 0 0 0 0.08 0"/>
<feBlend mode="normal" in2="BackgroundImageFix" result="effect1_dropShadow_500_29116"/>
<feBlend mode="normal" in="SourceGraphic" in2="effect1_dropShadow_500_29116" result="shape"/>
</filter>
<radialGradient id="paint0_radial_500_29116" cx="0" cy="0" r="1" gradientUnits="userSpaceOnUse" gradientTransform="translate(84.8801 106.042) rotate(90) scale(31.8387 31.8464)">
<stop stop-color="#F6FAFD" stop-opacity="0.28"/>
<stop offset="1" stop-color="#F6FAFD"/>
</radialGradient>
</defs>
</svg>
