<svg width="460" height="460" viewBox="0 0 460 460" fill="none" xmlns="http://www.w3.org/2000/svg">
<rect y="-205" width="218" height="273" rx="8" fill="#F1F3F7"/>
<rect y="92" width="218" height="273" rx="8" fill="#F1F3F7"/>
<rect x="77.0577" y="196.558" width="63.8846" height="63.8846" rx="4.44231" fill="#F1F3F7" stroke="#6D758F" stroke-width="2.11538"/>
<mask id="mask0_699_20493" style="mask-type:alpha" maskUnits="userSpaceOnUse" x="78" y="198" width="62" height="62">
<rect x="78.3125" y="198.043" width="61.343" height="61.3283" rx="2.75" fill="#E1E4ED"/>
</mask>
<g mask="url(#mask0_699_20493)">
<line x1="121.111" y1="195.5" x2="121.111" y2="264.316" stroke="#B4B9C9" stroke-width="1.375"/>
<line x1="132.533" y1="195.5" x2="132.533" y2="264.316" stroke="#B4B9C9" stroke-width="1.375"/>
<line x1="109.687" y1="195.5" x2="109.688" y2="264.316" stroke="#B4B9C9" stroke-width="1.375"/>
<line x1="86.8418" y1="195.5" x2="86.8418" y2="264.316" stroke="#B4B9C9" stroke-width="1.375"/>
<line x1="98.2656" y1="195.5" x2="98.2656" y2="264.316" stroke="#B4B9C9" stroke-width="1.375"/>
<line x1="74.5918" y1="217.795" x2="143.408" y2="217.795" stroke="#B4B9C9" stroke-width="1.375"/>
<line x1="74.5918" y1="206.373" x2="143.408" y2="206.373" stroke="#B4B9C9" stroke-width="1.375"/>
<line x1="74.5918" y1="229.219" x2="143.408" y2="229.219" stroke="#B4B9C9" stroke-width="1.375"/>
<line x1="74.5918" y1="252.064" x2="143.408" y2="252.064" stroke="#B4B9C9" stroke-width="1.375"/>
<line x1="74.5918" y1="240.643" x2="143.408" y2="240.643" stroke="#B4B9C9" stroke-width="1.375"/>
<rect x="77.0352" y="196.703" width="63.6927" height="63.6775" rx="4.125" fill="url(#paint0_radial_699_20493)"/>
<g filter="url(#filter0_d_699_20493)">
<rect x="94.8926" y="217.76" width="28.0195" height="24.8076" fill="white"/>
<path d="M93.6035 237.204L99.436 229.785C101.09 227.681 104.254 227.612 105.998 229.642L111.125 235.611M106.697 230.456C108.9 227.654 111.969 223.685 112.169 223.426C112.176 223.417 112.183 223.408 112.19 223.399C113.847 221.309 117.001 221.245 118.741 223.27L123.869 229.239M97.8512 244.107H120.152C122.498 244.107 124.399 242.205 124.399 239.859V217.558C124.399 215.212 122.498 213.311 120.152 213.311H97.8512C95.5053 213.311 93.6035 215.212 93.6035 217.558V239.859C93.6035 242.205 95.5053 244.107 97.8512 244.107Z" fill="white"/>
<path d="M93.6035 237.204L99.436 229.785C101.09 227.681 104.254 227.612 105.998 229.642L111.125 235.611M106.697 230.456C108.9 227.654 111.969 223.685 112.169 223.426C112.176 223.417 112.183 223.408 112.19 223.399C113.847 221.309 117.001 221.245 118.741 223.27L123.869 229.239M97.8512 244.107H120.152C122.498 244.107 124.399 242.205 124.399 239.859V217.558C124.399 215.212 122.498 213.311 120.152 213.311H97.8512C95.5053 213.311 93.6035 215.212 93.6035 217.558V239.859C93.6035 242.205 95.5053 244.107 97.8512 244.107Z" stroke="#6D758F" stroke-width="1.69231" stroke-linecap="round" stroke-linejoin="round"/>
<path d="M120.848 243.252H97.667H97.1211C95.6023 243.252 94.3711 242.021 94.3711 240.502V238.43C94.3711 237.801 94.5872 237.19 94.9832 236.701L100.649 229.698C101.729 228.363 103.754 228.333 104.872 229.635L110.492 236.174C110.701 236.417 111.028 236.52 111.338 236.441C111.946 236.287 112.177 235.546 111.765 235.073L107.757 230.471L113.303 223.334C114.362 221.971 116.399 221.909 117.539 223.204L123.598 230.089V240.502C123.598 242.021 122.367 243.252 120.848 243.252Z" fill="#E1E4ED"/>
</g>
</g>
<rect y="389" width="218" height="273" rx="8" fill="#F1F3F7"/>
<rect x="242" y="-173" width="218" height="273" rx="8" fill="#F1F3F7"/>
<rect x="242" y="124" width="218" height="273" rx="8" fill="#F1F3F7"/>
<rect x="319.058" y="228.558" width="63.8846" height="63.8846" rx="4.44231" fill="#F1F3F7" stroke="#6D758F" stroke-width="2.11538"/>
<mask id="mask1_699_20493" style="mask-type:alpha" maskUnits="userSpaceOnUse" x="320" y="230" width="62" height="62">
<rect x="320.312" y="230.043" width="61.343" height="61.3283" rx="2.75" fill="#E1E4ED"/>
</mask>
<g mask="url(#mask1_699_20493)">
<line x1="363.111" y1="227.5" x2="363.111" y2="296.316" stroke="#B4B9C9" stroke-width="1.375"/>
<line x1="374.533" y1="227.5" x2="374.533" y2="296.316" stroke="#B4B9C9" stroke-width="1.375"/>
<line x1="351.687" y1="227.5" x2="351.688" y2="296.316" stroke="#B4B9C9" stroke-width="1.375"/>
<line x1="328.842" y1="227.5" x2="328.842" y2="296.316" stroke="#B4B9C9" stroke-width="1.375"/>
<line x1="340.266" y1="227.5" x2="340.266" y2="296.316" stroke="#B4B9C9" stroke-width="1.375"/>
<line x1="316.592" y1="249.795" x2="385.408" y2="249.795" stroke="#B4B9C9" stroke-width="1.375"/>
<line x1="316.592" y1="238.373" x2="385.408" y2="238.373" stroke="#B4B9C9" stroke-width="1.375"/>
<line x1="316.592" y1="261.219" x2="385.408" y2="261.219" stroke="#B4B9C9" stroke-width="1.375"/>
<line x1="316.592" y1="284.064" x2="385.408" y2="284.064" stroke="#B4B9C9" stroke-width="1.375"/>
<line x1="316.592" y1="272.643" x2="385.408" y2="272.643" stroke="#B4B9C9" stroke-width="1.375"/>
<rect x="319.035" y="228.703" width="63.6927" height="63.6775" rx="4.125" fill="url(#paint1_radial_699_20493)"/>
<g filter="url(#filter1_d_699_20493)">
<rect x="336.893" y="249.76" width="28.0195" height="24.8076" fill="white"/>
<path d="M335.604 269.204L341.436 261.785C343.09 259.681 346.254 259.612 347.998 261.642L353.125 267.611M348.697 262.456C350.9 259.654 353.969 255.685 354.169 255.426C354.176 255.417 354.183 255.408 354.19 255.399C355.847 253.309 359.001 253.245 360.741 255.27L365.869 261.239M339.851 276.107H362.152C364.498 276.107 366.399 274.205 366.399 271.859V249.558C366.399 247.212 364.498 245.311 362.152 245.311H339.851C337.505 245.311 335.604 247.212 335.604 249.558V271.859C335.604 274.205 337.505 276.107 339.851 276.107Z" fill="white"/>
<path d="M335.604 269.204L341.436 261.785C343.09 259.681 346.254 259.612 347.998 261.642L353.125 267.611M348.697 262.456C350.9 259.654 353.969 255.685 354.169 255.426C354.176 255.417 354.183 255.408 354.19 255.399C355.847 253.309 359.001 253.245 360.741 255.27L365.869 261.239M339.851 276.107H362.152C364.498 276.107 366.399 274.205 366.399 271.859V249.558C366.399 247.212 364.498 245.311 362.152 245.311H339.851C337.505 245.311 335.604 247.212 335.604 249.558V271.859C335.604 274.205 337.505 276.107 339.851 276.107Z" stroke="#6D758F" stroke-width="1.69231" stroke-linecap="round" stroke-linejoin="round"/>
<path d="M362.848 275.252H339.667H339.121C337.602 275.252 336.371 274.021 336.371 272.502V270.43C336.371 269.801 336.587 269.19 336.983 268.701L342.649 261.698C343.729 260.363 345.754 260.333 346.872 261.635L352.492 268.174C352.701 268.417 353.028 268.52 353.338 268.441C353.946 268.287 354.177 267.546 353.765 267.073L349.757 262.471L355.303 255.334C356.362 253.971 358.399 253.909 359.539 255.204L365.598 262.089V272.502C365.598 274.021 364.367 275.252 362.848 275.252Z" fill="#E1E4ED"/>
</g>
</g>
<rect x="242" y="421" width="218" height="273" rx="8" fill="#F1F3F7"/>
<defs>
<filter id="filter0_d_699_20493" x="88.7578" y="209.465" width="40.4883" height="40.4883" filterUnits="userSpaceOnUse" color-interpolation-filters="sRGB">
<feFlood flood-opacity="0" result="BackgroundImageFix"/>
<feColorMatrix in="SourceAlpha" type="matrix" values="0 0 0 0 0 0 0 0 0 0 0 0 0 0 0 0 0 0 127 0" result="hardAlpha"/>
<feOffset dy="1"/>
<feGaussianBlur stdDeviation="2"/>
<feComposite in2="hardAlpha" operator="out"/>
<feColorMatrix type="matrix" values="0 0 0 0 0.0969792 0 0 0 0 0.127894 0 0 0 0 0.2375 0 0 0 0.08 0"/>
<feBlend mode="normal" in2="BackgroundImageFix" result="effect1_dropShadow_699_20493"/>
<feBlend mode="normal" in="SourceGraphic" in2="effect1_dropShadow_699_20493" result="shape"/>
</filter>
<filter id="filter1_d_699_20493" x="330.758" y="241.465" width="40.4883" height="40.4883" filterUnits="userSpaceOnUse" color-interpolation-filters="sRGB">
<feFlood flood-opacity="0" result="BackgroundImageFix"/>
<feColorMatrix in="SourceAlpha" type="matrix" values="0 0 0 0 0 0 0 0 0 0 0 0 0 0 0 0 0 0 127 0" result="hardAlpha"/>
<feOffset dy="1"/>
<feGaussianBlur stdDeviation="2"/>
<feComposite in2="hardAlpha" operator="out"/>
<feColorMatrix type="matrix" values="0 0 0 0 0.0969792 0 0 0 0 0.127894 0 0 0 0 0.2375 0 0 0 0.08 0"/>
<feBlend mode="normal" in2="BackgroundImageFix" result="effect1_dropShadow_699_20493"/>
<feBlend mode="normal" in="SourceGraphic" in2="effect1_dropShadow_699_20493" result="shape"/>
</filter>
<radialGradient id="paint0_radial_699_20493" cx="0" cy="0" r="1" gradientUnits="userSpaceOnUse" gradientTransform="translate(108.882 228.542) rotate(90) scale(31.8387 31.8464)">
<stop stop-color="#F6FAFD" stop-opacity="0.28"/>
<stop offset="1" stop-color="#F6FAFD"/>
</radialGradient>
<radialGradient id="paint1_radial_699_20493" cx="0" cy="0" r="1" gradientUnits="userSpaceOnUse" gradientTransform="translate(350.882 260.542) rotate(90) scale(31.8387 31.8464)">
<stop stop-color="#F6FAFD" stop-opacity="0.28"/>
<stop offset="1" stop-color="#F6FAFD"/>
</radialGradient>
</defs>
</svg>
