<svg width="546" height="531" viewBox="0 0 546 531" fill="none" xmlns="http://www.w3.org/2000/svg">
<rect x="-18" width="564" height="531" rx="8" fill="#F1F3F7"/>
<g filter="url(#filter0_d_632_15645)">
<rect x="232.058" y="234.058" width="63.8846" height="63.8846" rx="4.44231" fill="#F1F3F7" stroke="#6D758F" stroke-width="2.11538"/>
<mask id="mask0_632_15645" style="mask-type:alpha" maskUnits="userSpaceOnUse" x="233" y="235" width="62" height="62">
<rect x="233.312" y="235.543" width="61.343" height="61.3283" rx="2.75" fill="#E1E4ED"/>
</mask>
<g mask="url(#mask0_632_15645)">
<line x1="276.109" y1="233" x2="276.109" y2="301.816" stroke="#B4B9C9" stroke-width="1.375"/>
<line x1="287.532" y1="233" x2="287.532" y2="301.816" stroke="#B4B9C9" stroke-width="1.375"/>
<line x1="264.687" y1="233" x2="264.687" y2="301.816" stroke="#B4B9C9" stroke-width="1.375"/>
<line x1="241.841" y1="233" x2="241.841" y2="301.816" stroke="#B4B9C9" stroke-width="1.375"/>
<line x1="253.264" y1="233" x2="253.264" y2="301.816" stroke="#B4B9C9" stroke-width="1.375"/>
<line x1="229.592" y1="255.295" x2="298.408" y2="255.295" stroke="#B4B9C9" stroke-width="1.375"/>
<line x1="229.592" y1="243.873" x2="298.408" y2="243.873" stroke="#B4B9C9" stroke-width="1.375"/>
<line x1="229.592" y1="266.719" x2="298.408" y2="266.719" stroke="#B4B9C9" stroke-width="1.375"/>
<line x1="229.592" y1="289.564" x2="298.408" y2="289.564" stroke="#B4B9C9" stroke-width="1.375"/>
<line x1="229.592" y1="278.143" x2="298.408" y2="278.143" stroke="#B4B9C9" stroke-width="1.375"/>
<rect x="232.034" y="234.203" width="63.6927" height="63.6775" rx="4.125" fill="url(#paint0_radial_632_15645)"/>
<g filter="url(#filter1_d_632_15645)">
<rect x="249.892" y="255.26" width="28.0195" height="24.8076" fill="white"/>
<path d="M248.603 274.704L254.435 267.285C256.089 265.181 259.253 265.112 260.997 267.142L266.124 273.111M261.696 267.956C263.899 265.154 266.968 261.185 267.168 260.926C267.175 260.917 267.182 260.908 267.189 260.899C268.846 258.809 272 258.745 273.74 260.77L278.868 266.739M252.85 281.607H275.151C277.497 281.607 279.399 279.705 279.399 277.359V255.058C279.399 252.712 277.497 250.811 275.151 250.811H252.85C250.504 250.811 248.603 252.712 248.603 255.058V277.359C248.603 279.705 250.504 281.607 252.85 281.607Z" fill="white"/>
<path d="M248.603 274.704L254.435 267.285C256.089 265.181 259.253 265.112 260.997 267.142L266.124 273.111M261.696 267.956C263.899 265.154 266.968 261.185 267.168 260.926C267.175 260.917 267.182 260.908 267.189 260.899C268.846 258.809 272 258.745 273.74 260.77L278.868 266.739M252.85 281.607H275.151C277.497 281.607 279.399 279.705 279.399 277.359V255.058C279.399 252.712 277.497 250.811 275.151 250.811H252.85C250.504 250.811 248.603 252.712 248.603 255.058V277.359C248.603 279.705 250.504 281.607 252.85 281.607Z" stroke="#6D758F" stroke-width="1.69231" stroke-linecap="round" stroke-linejoin="round"/>
<path d="M275.847 280.752H252.666H252.12C250.601 280.752 249.37 279.521 249.37 278.002V275.93C249.37 275.301 249.586 274.69 249.982 274.201L255.648 267.198C256.728 265.863 258.753 265.833 259.871 267.135L265.492 273.674C265.7 273.917 266.027 274.02 266.337 273.941C266.945 273.787 267.176 273.046 266.764 272.573L262.756 267.971L268.303 260.834C269.361 259.471 271.398 259.409 272.538 260.704L278.597 267.589V278.002C278.597 279.521 277.366 280.752 275.847 280.752Z" fill="#E1E4ED"/>
</g>
</g>
</g>
<defs>
<filter id="filter0_d_632_15645" x="225" y="229" width="78" height="78" filterUnits="userSpaceOnUse" color-interpolation-filters="sRGB">
<feFlood flood-opacity="0" result="BackgroundImageFix"/>
<feColorMatrix in="SourceAlpha" type="matrix" values="0 0 0 0 0 0 0 0 0 0 0 0 0 0 0 0 0 0 127 0" result="hardAlpha"/>
<feOffset dy="2"/>
<feGaussianBlur stdDeviation="3"/>
<feComposite in2="hardAlpha" operator="out"/>
<feColorMatrix type="matrix" values="0 0 0 0 0.0969792 0 0 0 0 0.127894 0 0 0 0 0.2375 0 0 0 0.14 0"/>
<feBlend mode="normal" in2="BackgroundImageFix" result="effect1_dropShadow_632_15645"/>
<feBlend mode="normal" in="SourceGraphic" in2="effect1_dropShadow_632_15645" result="shape"/>
</filter>
<filter id="filter1_d_632_15645" x="243.757" y="246.965" width="40.4883" height="40.4883" filterUnits="userSpaceOnUse" color-interpolation-filters="sRGB">
<feFlood flood-opacity="0" result="BackgroundImageFix"/>
<feColorMatrix in="SourceAlpha" type="matrix" values="0 0 0 0 0 0 0 0 0 0 0 0 0 0 0 0 0 0 127 0" result="hardAlpha"/>
<feOffset dy="1"/>
<feGaussianBlur stdDeviation="2"/>
<feComposite in2="hardAlpha" operator="out"/>
<feColorMatrix type="matrix" values="0 0 0 0 0.0969792 0 0 0 0 0.127894 0 0 0 0 0.2375 0 0 0 0.08 0"/>
<feBlend mode="normal" in2="BackgroundImageFix" result="effect1_dropShadow_632_15645"/>
<feBlend mode="normal" in="SourceGraphic" in2="effect1_dropShadow_632_15645" result="shape"/>
</filter>
<radialGradient id="paint0_radial_632_15645" cx="0" cy="0" r="1" gradientUnits="userSpaceOnUse" gradientTransform="translate(263.881 266.042) rotate(90) scale(31.8387 31.8464)">
<stop stop-color="#F6FAFD" stop-opacity="0.28"/>
<stop offset="1" stop-color="#F6FAFD"/>
</radialGradient>
</defs>
</svg>
