<svg width="564" height="452" viewBox="0 0 564 452" fill="none" xmlns="http://www.w3.org/2000/svg">
<rect width="564" height="452" rx="8" fill="#F1F3F7"/>
<g filter="url(#filter0_d_451_3268)">
<rect x="250.058" y="194.058" width="63.8846" height="63.8846" rx="4.44231" fill="#F1F3F7" stroke="#6D758F" stroke-width="2.11538"/>
<mask id="mask0_451_3268" style="mask-type:alpha" maskUnits="userSpaceOnUse" x="251" y="195" width="62" height="62">
<rect x="251.312" y="195.543" width="61.343" height="61.3283" rx="2.75" fill="#E1E4ED"/>
</mask>
<g mask="url(#mask0_451_3268)">
<line x1="294.109" y1="193" x2="294.109" y2="261.817" stroke="#B4B9C9" stroke-width="1.375"/>
<line x1="305.53" y1="193" x2="305.53" y2="261.817" stroke="#B4B9C9" stroke-width="1.375"/>
<line x1="282.685" y1="193" x2="282.685" y2="261.817" stroke="#B4B9C9" stroke-width="1.375"/>
<line x1="259.839" y1="193" x2="259.839" y2="261.817" stroke="#B4B9C9" stroke-width="1.375"/>
<line x1="271.263" y1="193" x2="271.263" y2="261.817" stroke="#B4B9C9" stroke-width="1.375"/>
<line x1="247.59" y1="215.298" x2="316.406" y2="215.298" stroke="#B4B9C9" stroke-width="1.375"/>
<line x1="247.59" y1="203.875" x2="316.406" y2="203.875" stroke="#B4B9C9" stroke-width="1.375"/>
<line x1="247.59" y1="226.721" x2="316.406" y2="226.721" stroke="#B4B9C9" stroke-width="1.375"/>
<line x1="247.59" y1="249.567" x2="316.406" y2="249.567" stroke="#B4B9C9" stroke-width="1.375"/>
<line x1="247.59" y1="238.144" x2="316.406" y2="238.144" stroke="#B4B9C9" stroke-width="1.375"/>
<rect x="250.033" y="194.204" width="63.6927" height="63.6775" rx="4.125" fill="url(#paint0_radial_451_3268)"/>
<g filter="url(#filter1_d_451_3268)">
<rect x="267.893" y="215.259" width="28.0195" height="24.8076" fill="white"/>
<path d="M266.604 234.702L272.436 227.283C274.09 225.179 277.254 225.111 278.998 227.14L284.125 233.11M279.697 227.955C281.9 225.153 284.969 221.183 285.169 220.925C285.176 220.916 285.183 220.907 285.19 220.898C286.847 218.807 290.001 218.743 291.741 220.769L296.869 226.738M270.851 241.605H293.152C295.498 241.605 297.399 239.703 297.399 237.357V215.057C297.399 212.711 295.498 210.809 293.152 210.809H270.851C268.505 210.809 266.604 212.711 266.604 215.057V237.357C266.604 239.703 268.505 241.605 270.851 241.605Z" fill="white"/>
<path d="M266.604 234.703L272.436 227.283C274.09 225.179 277.254 225.111 278.998 227.14L284.125 233.11M279.697 227.955C281.9 225.153 284.969 221.183 285.169 220.925C285.176 220.916 285.183 220.907 285.19 220.898C286.847 218.807 290.001 218.743 291.741 220.769L296.869 226.738M270.851 241.605H293.152C295.498 241.605 297.399 239.703 297.399 237.357V215.057C297.399 212.711 295.498 210.809 293.152 210.809H270.851C268.505 210.809 266.604 212.711 266.604 215.057V237.357C266.604 239.703 268.505 241.605 270.851 241.605Z" stroke="#6D758F" stroke-width="1.69231" stroke-linecap="round" stroke-linejoin="round"/>
<path d="M293.848 240.75H270.667H270.121C268.602 240.75 267.371 239.519 267.371 238V235.929C267.371 235.299 267.587 234.689 267.983 234.199L273.649 227.196C274.729 225.862 276.754 225.832 277.872 227.133L283.492 233.673C283.701 233.915 284.028 234.019 284.338 233.94C284.946 233.785 285.177 233.044 284.765 232.571L280.757 227.97L286.303 220.832C287.362 219.47 289.399 219.408 290.539 220.703L296.598 227.587V238C296.598 239.519 295.367 240.75 293.848 240.75Z" fill="#E1E4ED"/>
</g>
</g>
</g>
<defs>
<filter id="filter0_d_451_3268" x="243" y="189" width="78" height="78" filterUnits="userSpaceOnUse" color-interpolation-filters="sRGB">
<feFlood flood-opacity="0" result="BackgroundImageFix"/>
<feColorMatrix in="SourceAlpha" type="matrix" values="0 0 0 0 0 0 0 0 0 0 0 0 0 0 0 0 0 0 127 0" result="hardAlpha"/>
<feOffset dy="2"/>
<feGaussianBlur stdDeviation="3"/>
<feComposite in2="hardAlpha" operator="out"/>
<feColorMatrix type="matrix" values="0 0 0 0 0.0969792 0 0 0 0 0.127894 0 0 0 0 0.2375 0 0 0 0.14 0"/>
<feBlend mode="normal" in2="BackgroundImageFix" result="effect1_dropShadow_451_3268"/>
<feBlend mode="normal" in="SourceGraphic" in2="effect1_dropShadow_451_3268" result="shape"/>
</filter>
<filter id="filter1_d_451_3268" x="261.758" y="206.963" width="40.4883" height="40.4883" filterUnits="userSpaceOnUse" color-interpolation-filters="sRGB">
<feFlood flood-opacity="0" result="BackgroundImageFix"/>
<feColorMatrix in="SourceAlpha" type="matrix" values="0 0 0 0 0 0 0 0 0 0 0 0 0 0 0 0 0 0 127 0" result="hardAlpha"/>
<feOffset dy="1"/>
<feGaussianBlur stdDeviation="2"/>
<feComposite in2="hardAlpha" operator="out"/>
<feColorMatrix type="matrix" values="0 0 0 0 0.0969792 0 0 0 0 0.127894 0 0 0 0 0.2375 0 0 0 0.08 0"/>
<feBlend mode="normal" in2="BackgroundImageFix" result="effect1_dropShadow_451_3268"/>
<feBlend mode="normal" in="SourceGraphic" in2="effect1_dropShadow_451_3268" result="shape"/>
</filter>
<radialGradient id="paint0_radial_451_3268" cx="0" cy="0" r="1" gradientUnits="userSpaceOnUse" gradientTransform="translate(281.88 226.042) rotate(90) scale(31.8387 31.8464)">
<stop stop-color="#F6FAFD" stop-opacity="0.28"/>
<stop offset="1" stop-color="#F6FAFD"/>
</radialGradient>
</defs>
</svg>
